<svg xmlns="http://www.w3.org/2000/svg" width="312.852" height="204.847" viewBox="0 0 312.852 204.847">
  <g id="Group_1648" data-name="Group 1648" transform="translate(-50.69 -255.153)">
    <g id="Background_Complete" data-name="Background Complete" transform="translate(50.69 255.153)">
      <g id="Group_1" data-name="Group 1" transform="translate(237.881 22.938)">
        <path id="Path_1" data-name="Path 1" d="M608.389,125.994,603.5,149.669l-3.145-3.068L595,150.418l-4.09-5.078-9.178,6.672L573.893,138.9l-8.748,5.123-3.468-4.783L550.57,145.5l-3.342-7.154,7.785-37.708,41.74,8.618Z" transform="translate(-539.071 -100.634)" fill="#ebebeb"/>
        <path id="Path_2" data-name="Path 2" d="M641.453,117.5l11.637,16.74-14.476-2.989Z" transform="translate(-583.771 -108.886)" fill="#dbdbdb"/>
        <path id="Path_3" data-name="Path 3" d="M594.651,195.035l-7.17,34.736-56.218-11.6,7.116-34.46,3.342,7.154,11.107-6.258,3.468,4.783,8.748-5.123,7.838,13.114,9.178-6.672,4.09,5.078,5.355-3.817Z" transform="translate(-531.262 -141.268)" fill="#ebebeb"/>
      </g>
      <g id="Group_3" data-name="Group 3" transform="translate(158.958)">
        <path id="Path_4" data-name="Path 4" d="M438.619,128.368l-57.294,3.546-4.551-73.548,42.541-2.633,15.621,13.1Z" transform="translate(-376.774 -55.734)" fill="#ebebeb"/>
        <path id="Path_5" data-name="Path 5" d="M460.045,55.734l15.621,13.1-14.753.913Z" transform="translate(-417.505 -55.734)" fill="#dbdbdb"/>
        <g id="Group_2" data-name="Group 2" transform="translate(19.262 17.613)">
          <path id="Path_6" data-name="Path 6" d="M421.874,122.082l-.222-1.659c-.578-3.439.364-7.284,3.352-11.308,2.693-3.558,4.155-6.147,3.994-9.03-.183-3.269-2.355-5.332-6.4-5.17a11.406,11.406,0,0,0-6.36,2.349l-1.764-3.951a16.827,16.827,0,0,1,9.019-3.076c7.369-.413,10.956,3.95,11.228,8.82.244,4.358-2.015,7.633-4.886,11.458-2.632,3.49-3.5,6.366-3.125,9.624l.157,1.662Zm-.907,9.049a3.794,3.794,0,0,1,3.618-4.252,4.016,4.016,0,1,1-3.618,4.252Z" transform="translate(-414.478 -90.211)" fill="#dbdbdb"/>
        </g>
      </g>
      <g id="Group_4" data-name="Group 4" transform="translate(23.437 17.587)">
        <path id="Path_7" data-name="Path 7" d="M130.391,125.611,124.625,123l-.8,1.766a1.5,1.5,0,0,1-1.314.876,8.745,8.745,0,0,0-.943.092,1.5,1.5,0,0,1-1.455-.6l-1.129-1.575-5.148,3.688,1.129,1.575a1.5,1.5,0,0,1,.1,1.572,8.819,8.819,0,0,0-.391.862,1.5,1.5,0,0,1-1.251.962l-1.929.19.622,6.3,1.935-.193a1.507,1.507,0,0,1,1.413.706c.083.131.171.259.262.386s.184.251.281.371a1.5,1.5,0,0,1,.215,1.558l-.805,1.778,5.765,2.615.8-1.769a1.5,1.5,0,0,1,1.315-.874,8.937,8.937,0,0,0,.938-.091,1.5,1.5,0,0,1,1.454.6l1.129,1.576,5.148-3.688-1.129-1.576a1.505,1.505,0,0,1-.1-1.571,8.751,8.751,0,0,0,.388-.86,1.505,1.505,0,0,1,1.251-.964l1.933-.192-.622-6.3-1.934.191a1.5,1.5,0,0,1-1.408-.7q-.126-.2-.264-.389t-.281-.372a1.507,1.507,0,0,1-.215-1.565Zm-3.271,5.828a5.186,5.186,0,1,1-7.235-1.2A5.182,5.182,0,0,1,127.12,131.439Z" transform="translate(-111.497 -106.221)" fill="#ebebeb"/>
        <path id="Path_8" data-name="Path 8" d="M652.806,291.713l-3.841,2.217.679,1.176a1.053,1.053,0,0,1-.037,1.106,6.11,6.11,0,0,0-.332.575,1.055,1.055,0,0,1-.937.583H646.98v4.437h1.357a1.055,1.055,0,0,1,.937.583,6.107,6.107,0,0,0,.332.575,1.053,1.053,0,0,1,.037,1.105l-.679,1.176,3.841,2.217.68-1.181a1.056,1.056,0,0,1,.979-.517c.108.006.217.008.326.008s.218,0,.326-.008a1.052,1.052,0,0,1,.975.513l.684,1.184,3.841-2.217-.679-1.179a1.053,1.053,0,0,1,.039-1.105,6.238,6.238,0,0,0,.331-.572,1.054,1.054,0,0,1,.937-.582H662.6v-4.437h-1.358a1.054,1.054,0,0,1-.937-.582,6.1,6.1,0,0,0-.331-.572,1.054,1.054,0,0,1-.039-1.106l.679-1.179-3.841-2.217-.681,1.18a1.053,1.053,0,0,1-.976.514c-.108-.006-.218-.008-.328-.008s-.218,0-.326.008a1.057,1.057,0,0,1-.979-.516Zm1.985,4.241a3.633,3.633,0,1,1-3.635,3.631A3.63,3.63,0,0,1,654.791,295.954Z" transform="translate(-373.42 -188.746)" fill="#ebebeb"/>
        <path id="Path_9" data-name="Path 9" d="M166.47,90.672l-3.523,2.694.825,1.078a1.055,1.055,0,0,1,.106,1.1,6.135,6.135,0,0,0-.255.613,1.053,1.053,0,0,1-.854.7l-1.347.175.573,4.4,1.347-.175a1.054,1.054,0,0,1,1,.457,6.14,6.14,0,0,0,.4.527,1.053,1.053,0,0,1,.18,1.091l-.522,1.254,4.1,1.7.522-1.259a1.056,1.056,0,0,1,.9-.638q.162-.013.325-.034t.322-.05a1.052,1.052,0,0,1,1.032.383l.831,1.086,3.523-2.694L175.136,102a1.054,1.054,0,0,1-.1-1.1,6.018,6.018,0,0,0,.254-.61,1.056,1.056,0,0,1,.854-.7l1.347-.175-.573-4.4-1.347.175a1.055,1.055,0,0,1-1-.457,6.089,6.089,0,0,0-.4-.524,1.053,1.053,0,0,1-.181-1.091l.522-1.257-4.1-1.7-.523,1.257a1.055,1.055,0,0,1-.9.637c-.108.008-.218.02-.327.034s-.216.031-.323.05a1.056,1.056,0,0,1-1.038-.386Zm2.516,3.949a3.633,3.633,0,1,1-3.136,4.07A3.63,3.63,0,0,1,168.985,94.621Z" transform="translate(-135.917 -90.16)" fill="#ebebeb"/>
      </g>
      <g id="Group_10" data-name="Group 10" transform="translate(0 71.624)">
        <g id="Group_5" data-name="Group 5" transform="translate(11.716)">
          <path id="Path_10" data-name="Path 10" d="M110.553,257.672a139.761,139.761,0,0,0-.2-14.833A188.9,188.9,0,0,0,105.7,212.62c-1.3-5.592-2.891-11.09-4.554-16.582-.05-.166-.315-.119-.269.054,5.141,19.359,9.36,39.338,9.069,59.463-.081,5.632-.733,11.164-1.268,16.761-.014.15.232.209.266.056A84.1,84.1,0,0,0,110.553,257.672Z" transform="translate(-94.58 -195.935)" fill="#ebebeb"/>
          <path id="Path_11" data-name="Path 11" d="M94.853,196.242s-7.789,19.77-6.045,24.416,5.339,5.638,5.339,5.638-4.765,6.8-1.435,13.185,10.729,6.08,11.221,13.315C103.933,252.8,104.345,222.543,94.853,196.242Z" transform="translate(-88.554 -196.085)" fill="#ebebeb"/>
          <path id="Path_12" data-name="Path 12" d="M108.024,244.293a.153.153,0,0,0-.008-.1,181.07,181.07,0,0,0-7.555-39.77c-.012-.038-.075-.026-.064.014q2.314,8.675,4.089,17.443a8.6,8.6,0,0,0-3.718-2.073.021.021,0,0,0-.014.04,9.842,9.842,0,0,1,3.839,2.565q.342,1.718.662,3.44c-1.741-1.945-4.155-2.91-6.57-3.828a.028.028,0,0,0-.019.053,15.866,15.866,0,0,1,6.726,4.511q.891,4.921,1.564,9.876a9.417,9.417,0,0,0-4.645-2.662c-.054-.013-.084.067-.029.083a9.811,9.811,0,0,1,4.71,3.017.129.129,0,0,0,.029.022q.234,1.743.44,3.489a11.994,11.994,0,0,0-3.255-1.963c-.032-.013-.049.036-.017.05a11.2,11.2,0,0,1,3.26,2.158c.013.013.028.011.041.016.13,1.108.259,2.215.371,3.324a15.824,15.824,0,0,0-6.606-4.717c-.051-.019-.077.058-.028.08a17.212,17.212,0,0,1,6.51,5.01.145.145,0,0,0,.164.052q.252,2.552.444,5.112c0,.023.04.026.039,0Q108.238,246.912,108.024,244.293Z" transform="translate(-93.492 -200.073)" fill="#fff"/>
          <path id="Path_13" data-name="Path 13" d="M100.24,229.311a9.739,9.739,0,0,0-4.68-1.459c-.039,0-.042.054,0,.059a18.534,18.534,0,0,1,4.627,1.511C100.25,229.452,100.3,229.352,100.24,229.311Z" transform="translate(-91.966 -211.547)" fill="#fff"/>
          <path id="Path_14" data-name="Path 14" d="M103.2,270.529a9.853,9.853,0,0,0-3.513-1.2c-.043-.007-.046.059,0,.066a13.164,13.164,0,0,1,3.474,1.218C103.211,270.636,103.25,270.556,103.2,270.529Z" transform="translate(-93.985 -231.833)" fill="#fff"/>
        </g>
        <g id="Group_6" data-name="Group 6" transform="translate(28.107 24.475)">
          <path id="Path_15" data-name="Path 15" d="M140.695,244.631a52.921,52.921,0,0,0-9.015,7.881,32.369,32.369,0,0,0-6.322,10.722,80.156,80.156,0,0,0-4.71,25.643,62.282,62.282,0,0,0,1.389,14.421.137.137,0,0,0,.269-.051,80.883,80.883,0,0,1,.142-25.209c1.339-8.178,3.44-17.076,8.639-23.722,2.831-3.62,6.36-6.467,9.849-9.409C141.118,244.753,140.883,244.5,140.695,244.631Z" transform="translate(-120.638 -244.21)" fill="#ebebeb"/>
          <path id="Path_16" data-name="Path 16" d="M122.9,282.621a48.461,48.461,0,0,1,6.571-8.4c3.9-3.9,7.178-6.664,7.684-9.241s-3.9-4.474-3.9-4.474,5.392.968,6.868-1.295,2.188-15.369,2.188-15.369-9.81,7-14.38,16.821S122.9,282.621,122.9,282.621Z" transform="translate(-121.745 -243.843)" fill="#ebebeb"/>
          <path id="Path_17" data-name="Path 17" d="M138.872,250.373c-4.127,4.054-8.281,8.374-10.712,13.7a52.579,52.579,0,0,0-2.167,5.649s0,.006,0,.009c-.125.388-.252.774-.37,1.164a.146.146,0,0,0-.02.063,111.185,111.185,0,0,0-2.786,12.109c-.005.026.034.039.04.013.423-2.045.889-4.11,1.41-6.169a.145.145,0,0,0,.058-.011,8.581,8.581,0,0,1,2.574-.654c.059-.005.054-.107-.006-.1a9.652,9.652,0,0,0-2.546.464c.475-1.856.992-3.707,1.572-5.532a27.384,27.384,0,0,1,5.818-.761c.02,0,.023-.03,0-.031a22,22,0,0,0-5.721.485c.1-.313.206-.624.311-.936a29.454,29.454,0,0,1,3.871-.656c.023,0,.022-.042,0-.042a18.8,18.8,0,0,0-3.791.46c.534-1.579,1.111-3.136,1.75-4.652a28.187,28.187,0,0,1,1.852-3.6,23.683,23.683,0,0,1,3.14-.56c.03,0,.027-.05,0-.052a8.467,8.467,0,0,0-2.936.29c.516-.834,1.058-1.65,1.638-2.44h0a16.6,16.6,0,0,1,6.68-.516c.039.007.053-.058.015-.068a14.065,14.065,0,0,0-6.4.183c.232-.309.471-.615.711-.919a14.592,14.592,0,0,1,4.11-.646.023.023,0,0,0,0-.045,10.725,10.725,0,0,0-3.833.34c1.819-2.26,3.827-4.382,5.814-6.48C139.041,250.333,138.97,250.277,138.872,250.373Z" transform="translate(-121.702 -247.013)" fill="#fff"/>
          <path id="Path_18" data-name="Path 18" d="M152.111,267.814a8.965,8.965,0,0,0-1.95-.068.07.07,0,0,0,.007.139c.646.019,1.291-.029,1.937.006A.039.039,0,0,0,152.111,267.814Z" transform="translate(-135.051 -255.52)" fill="#fff"/>
          <path id="Path_19" data-name="Path 19" d="M137.305,292.8a8.838,8.838,0,0,0-3.023.607c-.024.009-.01.049.014.043,1-.238,2.008-.334,3.017-.5A.076.076,0,0,0,137.305,292.8Z" transform="translate(-127.305 -267.787)" fill="#fff"/>
          <path id="Path_20" data-name="Path 20" d="M134.812,284.194a6.41,6.41,0,0,0-1.283.116.039.039,0,0,0,0,.077,6.44,6.44,0,0,0,1.286-.06A.067.067,0,0,0,134.812,284.194Z" transform="translate(-126.928 -263.578)" fill="#fff"/>
        </g>
        <g id="Group_7" data-name="Group 7" transform="translate(0 38.581)">
          <path id="Path_21" data-name="Path 21" d="M66.4,271.884a44.562,44.562,0,0,1,9.117,4.294,27.244,27.244,0,0,1,7.6,7.216,67.45,67.45,0,0,1,9.739,19.664,52.443,52.443,0,0,1,2.21,11.992.115.115,0,0,1-.23.021A68.1,68.1,0,0,0,88.893,294.7c-2.974-6.309-6.731-13.024-12.474-17.2a55.311,55.311,0,0,0-10.146-5.338C66.089,272.08,66.22,271.82,66.4,271.884Z" transform="translate(-65.896 -271.66)" fill="#ebebeb"/>
          <path id="Path_22" data-name="Path 22" d="M90.289,298.352a40.824,40.824,0,0,0-7.259-5.279c-4.054-2.252-7.349-3.734-8.355-5.7s2.125-4.523,2.125-4.523-4.14,2.03-5.857.539-5.323-11.932-5.323-11.932,9.557,3.4,15.525,10.289S90.289,298.352,90.289,298.352Z" transform="translate(-65.62 -271.456)" fill="#ebebeb"/>
          <path id="Path_23" data-name="Path 23" d="M93.878,298.4c-4.78-8.972-11.158-17.089-19.9-22.446a0,0,0,0,0,0,.006,43.911,43.911,0,0,1,6.4,5.006,10.131,10.131,0,0,0-5.138,1.085.03.03,0,0,0,.026.054,14.077,14.077,0,0,1,5.287-.894.106.106,0,0,0,.06-.022q.465.441.919.9a16.265,16.265,0,0,0-2.746.364.019.019,0,0,0,.008.038,14.029,14.029,0,0,1,2.9-.239,60.021,60.021,0,0,1,4.508,5.118,4.584,4.584,0,0,0-1.92.139.037.037,0,0,0,.014.073,10.265,10.265,0,0,1,2.05-.028c.262.333.526.664.783,1a18.54,18.54,0,0,0-5.8.564.023.023,0,0,0,.009.044,23.356,23.356,0,0,1,5.958-.387c.244.323.475.656.714.983a12.579,12.579,0,0,0-3.453.4c-.043.011-.031.079.013.069a13.207,13.207,0,0,1,3.575-.278c1.028,1.417,2.013,2.864,2.959,4.331a3.227,3.227,0,0,0-1.515.091.021.021,0,0,0,.008.042,6.6,6.6,0,0,1,1.64.077q1.277,1.988,2.462,4.01C93.758,298.6,93.941,298.515,93.878,298.4Z" transform="translate(-69.706 -273.654)" fill="#fff"/>
          <path id="Path_24" data-name="Path 24" d="M95.706,305.3a7.413,7.413,0,0,0-2.777.34c-.026.008-.019.046.008.041A21.476,21.476,0,0,1,95.7,305.4C95.76,305.394,95.771,305.305,95.706,305.3Z" transform="translate(-78.97 -287.999)" fill="#fff"/>
          <path id="Path_25" data-name="Path 25" d="M80.806,283.9a4.766,4.766,0,0,0-1.28.075c-.05.008-.034.081.014.076.421-.045.836-.029,1.258-.041A.055.055,0,0,0,80.806,283.9Z" transform="translate(-72.407 -277.534)" fill="#fff"/>
        </g>
        <g id="Group_9" data-name="Group 9" transform="translate(15.423 64.832)">
          <g id="Group_8" data-name="Group 8" transform="translate(0 2.004)">
            <path id="Path_26" data-name="Path 26" d="M117.383,355.074H95.81l3.076-22.533.786-5.777h13.849l.786,5.777Z" transform="translate(-95.81 -326.764)" fill="#dbdbdb"/>
            <path id="Path_27" data-name="Path 27" d="M117.252,332.541H101.831l.786-5.777h13.849Z" transform="translate(-98.755 -326.764)" fill="#c7c7c7"/>
          </g>
          <rect id="Rectangle_1" data-name="Rectangle 1" width="17.81" height="4.893" transform="translate(1.882)" fill="#dbdbdb"/>
        </g>
      </g>
    </g>
    <g id="Floor" transform="translate(52.399 421.923)">
      <line id="Line_1" data-name="Line 1" x2="310.643" transform="translate(0)" fill="none" stroke="#263238" stroke-linecap="round" stroke-linejoin="round" stroke-width="1"/>
    </g>
    <g id="Shadow" transform="translate(62.255 427.897)">
      <g id="Group_14" data-name="Group 14" transform="translate(0)">
        <ellipse id="Ellipse_981" data-name="Ellipse 981" cx="146.487" cy="16.051" rx="146.487" ry="16.051" fill="#ebebeb"/>
      </g>
    </g>
    <g id="Character" transform="translate(74.618 270.861)">
      <g id="Group_57" data-name="Group 57" transform="translate(0)">
        <g id="Group_30" data-name="Group 30" transform="translate(0 43.168)">
          <g id="Group_21" data-name="Group 21" transform="translate(25.983 9.308)">
            <g id="Group_18" data-name="Group 18" transform="translate(33.53 84.007)">
              <path id="Path_2093" data-name="Path 2093" d="M269.463,387.587c-1.191.4-35.323.523-36.628-.295-.5-.308-.8-5.278-1-11.294-.043-1.3-.081-2.641-.11-4l-2.768-18.205,22.818-.147,2.154,18.209-.087,4.005s13.089,5.8,14.423,6.85S270.655,387.184,269.463,387.587Z" transform="translate(-228.952 -353.643)" fill="#eb9481"/>
              <path id="Path_2094" data-name="Path 2094" d="M272.113,405.022c-1.191.4-35.323.523-36.628-.295-.6-.378-.932-7.635-1.115-15.3l22.2-.143-.087,4.005s13.089,5.8,14.423,6.85S273.3,404.619,272.113,405.022Z" transform="translate(-231.602 -371.078)" fill="#fff"/>
              <g id="Group_17" data-name="Group 17" transform="translate(2.878 16.258)">
                <path id="Path_2095" data-name="Path 2095" d="M272.219,408.857c-1.191.4-35.323.523-36.628-.295-.5-.308-.8-5.278-1-11.294l22.006-.141s13.089,5.8,14.423,6.85S273.41,408.453,272.219,408.857Z" transform="translate(-234.586 -391.171)" fill="#a6a6a6"/>
                <g id="Group_16" data-name="Group 16" transform="translate(2.183)">
                  <g id="Group_15" data-name="Group 15" transform="translate(0 6.517)">
                    <path id="Path_2096" data-name="Path 2096" d="M274.239,417.362c-5.722-.12-28.813-.066-34.479.25-.046,0-.046.034,0,.036,5.669.243,28.759,0,34.479-.192C274.36,417.452,274.359,417.364,274.239,417.362Z" transform="translate(-239.283 -407.557)" fill="#263238"/>
                    <path id="Path_2097" data-name="Path 2097" d="M297.1,408.144a4.6,4.6,0,0,0-3.418,1.409,4.453,4.453,0,0,0-1.268,3.06c0,.034.064.034.069,0a5.311,5.311,0,0,1,4.617-4.4A.036.036,0,0,0,297.1,408.144Z" transform="translate(-265.053 -403.076)" fill="#263238"/>
                    <path id="Path_2098" data-name="Path 2098" d="M275.907,398.226c-2.29-.024-4.943.794-6.359,2.672-.055.073.049.15.117.114a31.667,31.667,0,0,1,6.282-2.5A.144.144,0,0,0,275.907,398.226Z" transform="translate(-253.862 -398.225)" fill="#263238"/>
                    <path id="Path_2099" data-name="Path 2099" d="M279.372,399.563c-2.291-.024-4.943.794-6.359,2.672-.055.073.05.15.117.114a31.658,31.658,0,0,1,6.283-2.5A.144.144,0,0,0,279.372,399.563Z" transform="translate(-255.557 -398.879)" fill="#263238"/>
                    <path id="Path_2100" data-name="Path 2100" d="M282.838,400.9c-2.29-.024-4.943.794-6.359,2.672-.055.073.05.15.117.114a31.668,31.668,0,0,1,6.282-2.5A.144.144,0,0,0,282.838,400.9Z" transform="translate(-257.252 -399.533)" fill="#263238"/>
                    <path id="Path_2101" data-name="Path 2101" d="M286.3,402.237c-2.29-.024-4.942.794-6.359,2.672-.055.073.049.15.117.114a31.626,31.626,0,0,1,6.283-2.5A.144.144,0,0,0,286.3,402.237Z" transform="translate(-258.947 -400.187)" fill="#263238"/>
                    <path id="Path_2102" data-name="Path 2102" d="M240.774,407.259c-2.57.017-2.548,4.01.026,3.993S243.348,407.243,240.774,407.259Z" transform="translate(-238.858 -402.644)" fill="#263238"/>
                  </g>
                  <path id="Path_2103" data-name="Path 2103" d="M281.651,385.866c-1.163-.957-2.62-.013-3.331.988a12.016,12.016,0,0,0-2.061,5.863.061.061,0,0,0,.072.065.279.279,0,0,0,.412.183c1.627-1.134,3.506-2.144,4.736-3.743C282.2,388.29,282.75,386.771,281.651,385.866Zm-2.793,4.877c-.786.577-1.6,1.112-2.361,1.718a35.934,35.934,0,0,1,1.279-3.4,12.91,12.91,0,0,1,.831-1.548c.5-.758,2.736-2.68,2.973-.19C281.709,388.7,279.8,390.055,278.858,390.743Z" transform="translate(-257.152 -385.468)" fill="#263238"/>
                  <path id="Path_2104" data-name="Path 2104" d="M262.769,397.564c1.995.3,4.05-.276,6.008-.586a.279.279,0,0,0,.17-.418.06.06,0,0,0,.007-.1,12.017,12.017,0,0,0-5.55-2.8c-1.207-.228-2.911.1-3.086,1.6C260.153,396.677,261.6,397.389,262.769,397.564Zm-1.388-1.3c-1.556-1.959,1.391-2.128,2.274-1.924a12.9,12.9,0,0,1,1.672.539,35.969,35.969,0,0,1,3.278,1.562c-.972.093-1.926.27-2.893.4C264.559,397,262.24,397.346,261.381,396.265Z" transform="translate(-249.349 -389.445)" fill="#263238"/>
                </g>
              </g>
            </g>
            <g id="Group_20" data-name="Group 20">
              <path id="Path_2105" data-name="Path 2105" d="M163.318,189.2s26.5,45.079,27.208,48.244c1.09,4.863,6.87,52.893,6.87,52.893l27.572-.5s-4.752-42.347-9.253-56.3c-3.242-10.049-26.627-43.377-26.627-43.377Z" transform="translate(-163.318 -189.203)" fill="#37474f"/>
              <g id="Group_19" data-name="Group 19" transform="translate(4.429 4.114)">
                <path id="Path_2106" data-name="Path 2106" d="M256.787,377.881c-3.96-.029-17.991-.186-23.261.3-.04,0-.039.07,0,.076,1.814.261,19.3-.145,23.262-.272A.055.055,0,1,0,256.787,377.881Z" transform="translate(-202.073 -285.583)" fill="#263238"/>
                <path id="Path_2107" data-name="Path 2107" d="M172.082,197.278c1.736,2.723,3.568,5.39,5.344,8.09s3.546,5.406,5.293,8.126q5.236,8.153,10.228,16.456a50.183,50.183,0,0,1,4.131,8.036,49.137,49.137,0,0,1,2.326,8.652c.54,2.959.9,5.947,1.232,8.934q.536,4.77,1.065,9.541l2.179,19.523q.134,1.2.256,2.4c.012.117-.2.14-.213.023-.811-6.467-1.485-12.953-2.222-19.428l-1.1-9.671c-.341-3-.666-6-1.131-8.98a59.381,59.381,0,0,0-1.942-8.681,41.853,41.853,0,0,0-3.812-8.436c-3.2-5.51-6.576-10.927-9.959-16.33-3.412-5.449-6.852-10.883-10.42-16.236-.44-.661-.885-1.318-1.342-1.969C171.961,197.274,172.048,197.226,172.082,197.278Z" transform="translate(-171.988 -197.255)" fill="#263238"/>
              </g>
            </g>
          </g>
          <g id="Group_29" data-name="Group 29">
            <g id="Group_25" data-name="Group 25" transform="translate(0 85.868)">
              <path id="Path_2108" data-name="Path 2108" d="M147.127,383.116c-1.257-.077-33.715-13.228-34.62-14.474a.454.454,0,0,1-.05-.24c.006-1.116,2.253-5.023,4.132-10.149.118-.328.955-1.849,2.118-3.9,3.2-5.634,8.851-15.286,8.851-15.286l21.216,8.43-10.154,15.2-1.581,3.679s9.957,10.29,10.8,11.763S148.38,383.188,147.127,383.116Z" transform="translate(-112.458 -339.066)" fill="#eb9481"/>
              <path id="Path_2109" data-name="Path 2109" d="M147.127,397.752c-1.257-.077-33.715-13.228-34.62-14.474a.454.454,0,0,1-.05-.24c.006-1.116,2.253-5.023,4.132-10.149.118-.328.955-1.849,2.118-3.9l19.913,8.345-1.581,3.679s9.957,10.29,10.8,11.763S148.38,397.823,147.127,397.752Z" transform="translate(-112.458 -353.702)" fill="#fff"/>
              <g id="Group_24" data-name="Group 24" transform="translate(0 19.188)">
                <path id="Path_2110" data-name="Path 2110" d="M147.126,401.485c-1.256-.073-33.715-13.226-34.617-14.473-.344-.471,1.107-4.9,4.08-10.386l20.452,8.124s9.957,10.286,10.8,11.761S148.381,401.558,147.126,401.485Z" transform="translate(-112.459 -376.625)" fill="#a6a6a6"/>
                <g id="Group_23" data-name="Group 23" transform="translate(2.627 3.768)">
                  <g id="Group_22" data-name="Group 22" transform="translate(0 2.283)">
                    <path id="Path_2111" data-name="Path 2111" d="M149.694,410.284c-5.259-2.258-26.684-10.87-32.054-12.7-.043-.015-.055.014-.013.033,5.164,2.353,26.658,10.791,32.033,12.757C149.772,410.413,149.8,410.331,149.694,410.284Z" transform="translate(-117.6 -392.924)" fill="#263238"/>
                    <path id="Path_2112" data-name="Path 2112" d="M172.856,411.36a4.6,4.6,0,0,0-3.7.024,4.456,4.456,0,0,0-2.323,2.36c-.011.032.046.056.064.026a5.312,5.312,0,0,1,5.93-2.343A.036.036,0,0,0,172.856,411.36Z" transform="translate(-141.682 -399.482)" fill="#263238"/>
                    <path id="Path_2113" data-name="Path 2113" d="M157.557,394.47c-2.114-.881-4.879-1.118-6.9.091-.078.046-.011.157.065.15a31.675,31.675,0,0,1,6.763.035A.144.144,0,0,0,157.557,394.47Z" transform="translate(-133.754 -391.043)" fill="#263238"/>
                    <path id="Path_2114" data-name="Path 2114" d="M160.268,397.01c-2.114-.881-4.879-1.118-6.9.091-.078.047-.01.157.066.15a31.67,31.67,0,0,1,6.763.035A.144.144,0,0,0,160.268,397.01Z" transform="translate(-135.08 -392.285)" fill="#263238"/>
                    <path id="Path_2115" data-name="Path 2115" d="M162.979,399.549c-2.114-.881-4.88-1.118-6.9.091-.078.047-.01.157.066.15a31.637,31.637,0,0,1,6.763.035A.144.144,0,0,0,162.979,399.549Z" transform="translate(-136.406 -393.527)" fill="#263238"/>
                    <path id="Path_2116" data-name="Path 2116" d="M165.689,402.088c-2.114-.881-4.879-1.118-6.9.091-.078.047-.011.157.066.15a31.671,31.671,0,0,1,6.763.035A.144.144,0,0,0,165.689,402.088Z" transform="translate(-137.732 -394.769)" fill="#263238"/>
                    <path id="Path_2117" data-name="Path 2117" d="M121.7,388.624c-2.388-.949-3.866,2.761-1.474,3.711S124.1,389.574,121.7,388.624Z" transform="translate(-118.292 -388.47)" fill="#263238"/>
                  </g>
                  <path id="Path_2118" data-name="Path 2118" d="M165.887,385c-.719-1.324-2.424-.995-3.459-.334a12.017,12.017,0,0,0-4.109,4.663.06.06,0,0,0,.042.087c-.015.17.113.37.314.324,1.933-.44,4.054-.672,5.794-1.693C165.485,387.456,166.566,386.255,165.887,385Zm-4.418,3.473c-.946.24-1.9.432-2.833.706a35.941,35.941,0,0,1,2.46-2.67,12.949,12.949,0,0,1,1.351-1.123c.743-.517,3.542-1.458,2.827.939C164.879,387.651,162.6,388.191,161.468,388.477Z" transform="translate(-137.513 -384.046)" fill="#263238"/>
                  <path id="Path_2119" data-name="Path 2119" d="M145.815,387.959c1.737,1.026,3.858,1.264,5.789,1.71.2.047.33-.153.315-.324a.06.06,0,0,0,.042-.087,12.014,12.014,0,0,0-4.1-4.674c-1.032-.664-2.737-1-3.459.323C143.723,386.157,144.8,387.36,145.815,387.959Zm-.8-1.724c-.708-2.4,2.087-1.45,2.829-.931a12.964,12.964,0,0,1,1.348,1.127,35.943,35.943,0,0,1,2.452,2.677c-.935-.277-1.886-.472-2.831-.715C147.688,388.1,145.406,387.558,145.016,386.235Z" transform="translate(-130.607 -384.001)" fill="#263238"/>
                </g>
              </g>
            </g>
            <g id="Group_28" data-name="Group 28" transform="translate(4.052)">
              <path id="Path_2120" data-name="Path 2120" d="M144.138,279.631l-23.748-9.589s29.444-43.293,29.662-46.516c.193-2.854-12.74-27.693-13.25-34.932a21.617,21.617,0,0,1,7.345-17.611l24.5,10.413a21.335,21.335,0,0,1-6.658,6.439s12.563,28.711,11.851,37.539C173.122,234.25,144.138,279.631,144.138,279.631Z" transform="translate(-120.39 -170.983)" fill="#37474f"/>
              <g id="Group_27" data-name="Group 27" transform="translate(4.401 2.099)">
                <path id="Path_2121" data-name="Path 2121" d="M149.407,366.929c-3.434-1.477-2.428-1.1-5.879-2.54-1.688-.7-12.789-5.318-14.478-5.7a.04.04,0,0,0-.029.07c1.477.9,12.656,5.325,14.358,6,3.477,1.371,2.494.94,5.987,2.272A.054.054,0,0,0,149.407,366.929Z" transform="translate(-129.006 -264.896)" fill="#263238"/>
                <g id="Group_26" data-name="Group 26" transform="translate(33.716 8.593)">
                  <path id="Path_2122" data-name="Path 2122" d="M202.517,202.939a46.134,46.134,0,0,0-7.461,2.419.079.079,0,0,0,.051.149c2.5-.731,5.051-1.414,7.51-2.278A.153.153,0,0,0,202.517,202.939Z" transform="translate(-195.004 -197.303)" fill="#263238"/>
                  <path id="Path_2123" data-name="Path 2123" d="M203.112,200.852a10.925,10.925,0,0,0-.629,1.312,3.018,3.018,0,0,0-.322,1.1c0,.074.1.091.145.047a3.893,3.893,0,0,0,.616-1.037c.208-.4.426-.805.622-1.215C203.675,200.787,203.26,200.593,203.112,200.852Z" transform="translate(-198.505 -196.225)" fill="#263238"/>
                  <path id="Path_2124" data-name="Path 2124" d="M203.869,194.236c.15-.377.3-.754.46-1.127s.355-.768.488-1.166c.021-.063.12-.021.1.042-.149.378-.247.78-.367,1.168s-.248.778-.377,1.165c-.24.721-.534,1.437-.843,2.132a2.679,2.679,0,0,0,1.177-.2,2.122,2.122,0,0,0,.83-1c.216-.422.414-.853.637-1.271a9,9,0,0,0,.679-1.422c.02-.063.118-.021.1.042a16.414,16.414,0,0,1-1.305,3.021c-.226.374-.408.764-.824.911a3.448,3.448,0,0,1-1.4.093c-.057.016-.131-.021-.111-.09A23.98,23.98,0,0,1,203.869,194.236Z" transform="translate(-198.965 -191.912)" fill="#263238"/>
                </g>
                <path id="Path_2125" data-name="Path 2125" d="M202.474,205.773c.871,1.846,1.636,3.685,2.45,5.524.8,1.8,1.54,3.615,2.263,5.442,1.461,3.692,2.77,7.452,3.918,11.252q.853,2.822,1.564,5.682a41.424,41.424,0,0,1,1.134,5.808,15.344,15.344,0,0,1-.492,5.823,33.735,33.735,0,0,1-2.162,5.428c-.532,1.1-.716.956-.458.4.731-1.582,2.646-6.379,2.507-10.41a30.158,30.158,0,0,0-.906-5.751c-.449-1.93-.955-3.846-1.508-5.748-1.088-3.748-2.381-7.422-3.71-11.09-.745-2.055-1.544-4.089-2.3-6.14-.762-2.066-1.547-3.925-2.392-6.181A.049.049,0,0,1,202.474,205.773Z" transform="translate(-164.895 -190.085)" fill="#263238"/>
                <path id="Path_2126" data-name="Path 2126" d="M167.188,188.967c.426-.157,1.016.1,1.449.176a12.516,12.516,0,0,0,3.352.112,3.592,3.592,0,0,0,1.6-.422,8.025,8.025,0,0,0,2.037-2.164,12.4,12.4,0,0,0,1.589-2.79c.022-.06.108-.019.089.04-.179.569-.312,1.143-.539,1.7a10.78,10.78,0,0,1-.784,1.507,6.468,6.468,0,0,1-2.115,2.4,6.133,6.133,0,0,1-3.354.465,12.757,12.757,0,0,1-1.892-.252c-.45-.095-1.206-.167-1.493-.562A.139.139,0,0,1,167.188,188.967Z" transform="translate(-147.64 -179.375)" fill="#263238"/>
                <path id="Path_2127" data-name="Path 2127" d="M133.645,267.525q5.855-8.861,11.5-17.861,5.658-9.022,11.124-18.161a25.374,25.374,0,0,0,2.444-4.524,7.879,7.879,0,0,0-.29-5.167,87.143,87.143,0,0,0-3.646-9.218c-1.369-3.018-2.844-5.987-4.294-8.967a86.375,86.375,0,0,1-4.061-9.026,15.443,15.443,0,0,1-.639-9.12,26.6,26.6,0,0,1,4.3-8.353c.473-.675.955-1.344,1.43-2.017.036-.051.114.011.076.062a35.613,35.613,0,0,0-5.062,8.622,14.9,14.9,0,0,0-.98,4.83,15.605,15.605,0,0,0,.771,4.939,65.082,65.082,0,0,0,3.891,8.965c1.445,2.983,2.928,5.948,4.321,8.956a95.314,95.314,0,0,1,3.79,9.257,13.008,13.008,0,0,1,.983,4.384,9.546,9.546,0,0,1-1.638,4.526c-3.552,6.057-7.238,12.038-10.971,17.985q-5.62,8.953-11.447,17.775-.733,1.113-1.471,2.223C133.718,267.725,133.584,267.617,133.645,267.525Z" transform="translate(-131.267 -175.092)" fill="#263238"/>
              </g>
            </g>
          </g>
        </g>
        <g id="Group_56" data-name="Group 56" transform="translate(25.055)">
          <g id="Group_34" data-name="Group 34" transform="translate(27.125 21.73)">
            <path id="Path_2128" data-name="Path 2128" d="M216.93,133.764c2.211,4.854,13.381,11.542,18.613,12.261,3.764.517,15.193.695,19.112.1,4.59-.7,1.083-13.094-1.631-12.777-7.458.872-13.791,1.843-15.782,1.843-2.431,0-15.588-4.223-17.173-4.817C216.189,128.917,215.676,131.011,216.93,133.764Z" transform="translate(-215.44 -129.447)" fill="#eb9481"/>
            <g id="Group_32" data-name="Group 32">
              <g id="Group_31" data-name="Group 31">
                <path id="Path_2129" data-name="Path 2129" d="M216.156,134.62c2.8,4.142,12.106,10.915,12.106,10.915l1.291-2.862,4.274-9.459s-8.546-2.7-14.17-3.9a12.4,12.4,0,0,0-2.012-.287C214.054,128.836,213.742,131.056,216.156,134.62Z" transform="translate(-214.598 -129.018)" fill="#d4c9ab"/>
              </g>
              <path id="Path_2130" data-name="Path 2130" d="M216.156,134.62c2.8,4.142,12.106,10.915,12.106,10.915l1.291-2.862c-3.47-4.028-8.827-10.134-11.909-13.643C214.054,128.836,213.742,131.056,216.156,134.62Z" transform="translate(-214.598 -129.018)" fill="#263238"/>
              <path id="Path_2131" data-name="Path 2131" d="M238.057,147.748c.709-1.738,3.869-8.753,4.653-10.225.055-.1.132-.094.089.019a103.493,103.493,0,0,1-4.673,10.229C238.107,147.813,238.039,147.792,238.057,147.748Z" transform="translate(-226.071 -133.143)" fill="#263238"/>
            </g>
            <g id="Group_33" data-name="Group 33" transform="translate(36.215 3.243)">
              <path id="Path_2132" data-name="Path 2132" d="M285.487,136.157c4.54-.6,10.154-1.613,14.909.405a2.559,2.559,0,0,1,1.271,1.091c2.147.867,2.382,2.141,2.382,2.141a4.251,4.251,0,0,1,1.815,2.757s2.51,1.045,2.13,2.667c-.42,1.82-3.863,0-6.369.151-5.743.354-13.807,2.464-15.453,2.731Z" transform="translate(-285.487 -135.367)" fill="#eb9481"/>
              <path id="Path_2133" data-name="Path 2133" d="M304.722,147.044a25.858,25.858,0,0,1,10.463,1.072.045.045,0,0,0,.028-.085,19.564,19.564,0,0,0-10.5-1.064C304.637,146.982,304.637,147.048,304.722,147.044Z" transform="translate(-294.864 -140.901)" fill="#263238"/>
              <path id="Path_2134" data-name="Path 2134" d="M303.3,140.542a27.26,27.26,0,0,1,9.4,1.772c.016.005.03-.02.014-.028a17.557,17.557,0,0,0-9.417-1.823C303.2,140.47,303.194,140.54,303.3,140.542Z" transform="translate(-294.163 -137.834)" fill="#263238"/>
              <path id="Path_2135" data-name="Path 2135" d="M302.611,136.946a27.574,27.574,0,0,1,7.376,1.44c.016.005.029-.021.012-.029a16.44,16.44,0,0,0-7.4-1.509C302.5,136.846,302.5,136.94,302.611,136.946Z" transform="translate(-293.822 -136.092)" fill="#263238"/>
              <path id="Path_2136" data-name="Path 2136" d="M295.386,156.636c-.729.343-.555.728.841,1.051,1.412.331,7.2.418,6.991,2.438s-8.383,1.768-10.666,1.052a38.02,38.02,0,0,1-5.725-2.675C288.428,158.232,292.251,157.206,295.386,156.636Z" transform="translate(-286.142 -145.77)" fill="#eb9481"/>
            </g>
          </g>
          <g id="Group_37" data-name="Group 37" transform="translate(0 19.959)">
            <path id="Path_2137" data-name="Path 2137" d="M227.776,152.584c-.035.873-.121,1.761-.244,2.642.012-.032.026-.062.037-.094.171-.46.336-.932.542-1.376.011-.023.053-.017.047.011a7.6,7.6,0,0,1-.442,1.422c-.088.217-.177.434-.272.649-.063.392-.133.782-.213,1.166-.151.731-.841,3.838-1,4.363-.033.111-.165.085-.156-.038.038-.572.617-3.809.734-4.542a39.905,39.905,0,0,1,.91-4.217C227.73,152.539,227.777,152.554,227.776,152.584Z" transform="translate(-193.088 -138.759)" fill="#263238"/>
            <g id="Group_36" data-name="Group 36">
              <path id="Path_2138" data-name="Path 2138" d="M190.865,162.6c-1.363.7-3.12,1.791-11.038.232-.5-.1-.993-.222-1.492-.37C170.91,160.232,162,151.5,161.5,150.885c0,0,11.793-19.122,26.879-25.133,1.865-.743,4.952.69,6.661,2.473.611.637,1.935,5.328,1.426,9.131S192.237,161.906,190.865,162.6Z" transform="translate(-161.502 -125.552)" fill="#dbd2b6"/>
              <g id="Group_35" data-name="Group 35" transform="translate(4.067 2.478)">
                <line id="Line_2" data-name="Line 2" x1="0.332" y2="2.382" transform="translate(23.91 9.152)" fill="none" stroke="#fff" stroke-width="0.5"/>
                <line id="Line_3" data-name="Line 3" x1="0.332" y2="2.382" transform="translate(18.767 22.174)" fill="none" stroke="#fff" stroke-width="0.5"/>
                <line id="Line_4" data-name="Line 4" x1="0.332" y2="2.382" transform="translate(10.025 12.333)" fill="none" stroke="#fff" stroke-width="0.5"/>
                <line id="Line_5" data-name="Line 5" x1="0.332" y2="2.382" transform="translate(27.279 21.514)" fill="none" stroke="#fff" stroke-width="0.5"/>
                <line id="Line_6" data-name="Line 6" x2="2.382" y2="0.332" transform="translate(16.385 10.644)" fill="none" stroke="#fff" stroke-width="0.5"/>
                <line id="Line_7" data-name="Line 7" x2="2.382" y2="0.332" transform="translate(6.463 20.052)" fill="none" stroke="#fff" stroke-width="0.5"/>
                <line id="Line_8" data-name="Line 8" x2="2.382" y2="0.332" transform="translate(18.135 30.234)" fill="none" stroke="#fff" stroke-width="0.5"/>
                <line id="Line_9" data-name="Line 9" x2="2.382" y2="0.332" transform="translate(3.405 26.535)" fill="none" stroke="#fff" stroke-width="0.5"/>
                <line id="Line_10" data-name="Line 10" x2="2.382" y2="0.332" transform="translate(24.167)" fill="none" stroke="#fff" stroke-width="0.5"/>
                <line id="Line_11" data-name="Line 11" x1="1.919" y2="1.45" transform="translate(19.365 3.259)" fill="none" stroke="#fff" stroke-width="0.5"/>
                <line id="Line_12" data-name="Line 12" x1="1.919" y2="1.45" transform="translate(3.632 12.519)" fill="none" stroke="#fff" stroke-width="0.5"/>
                <line id="Line_13" data-name="Line 13" x1="1.919" y2="1.45" transform="translate(23.273 16.702)" fill="none" stroke="#fff" stroke-width="0.5"/>
                <line id="Line_14" data-name="Line 14" x1="1.919" y2="1.45" transform="translate(10.554 24.711)" fill="none" stroke="#fff" stroke-width="0.5"/>
                <line id="Line_15" data-name="Line 15" x1="1.919" y2="1.45" transform="translate(28.147 5.756)" fill="none" stroke="#fff" stroke-width="0.5"/>
                <line id="Line_16" data-name="Line 16" x1="1.45" y1="1.919" transform="translate(28.35 13.122)" fill="none" stroke="#fff" stroke-width="0.5"/>
                <line id="Line_17" data-name="Line 17" x1="1.45" y1="1.919" transform="translate(0 19.515)" fill="none" stroke="#fff" stroke-width="0.5"/>
                <line id="Line_18" data-name="Line 18" x1="1.45" y1="1.919" transform="translate(24.904 27.126)" fill="none" stroke="#fff" stroke-width="0.5"/>
                <line id="Line_19" data-name="Line 19" x1="1.45" y1="1.919" transform="translate(12.423 5.438)" fill="none" stroke="#fff" stroke-width="0.5"/>
                <line id="Line_20" data-name="Line 20" x1="1.45" y1="1.919" transform="translate(12.644 31.456)" fill="none" stroke="#fff" stroke-width="0.5"/>
                <line id="Line_21" data-name="Line 21" x1="1.45" y1="1.919" transform="translate(14.766 16.108)" fill="none" stroke="#fff" stroke-width="0.5"/>
              </g>
            </g>
          </g>
          <g id="Group_49" data-name="Group 49" transform="translate(26.804)">
            <g id="Group_39" data-name="Group 39" transform="translate(0 13.656)">
              <g id="Group_38" data-name="Group 38">
                <path id="Path_2139" data-name="Path 2139" d="M217.933,127.28c-1.922-.357-3.735-4.337-3.962-7.014-.015-.183.9-1.641,1.927-3.464.619-1.11,1.283-2.359,1.806-3.543.106-.244.736.569.736.569l1.369,1.047,4.524,3.469a20.634,20.634,0,0,0-2.726,4.229,2.942,2.942,0,0,0-.163.508c-.007.023-.013.053-.025.085C221.161,124.156,219.791,127.624,217.933,127.28Z" transform="translate(-213.971 -113.214)" fill="#eb9481"/>
              </g>
              <path id="Path_2140" data-name="Path 2140" d="M224.718,123.754c-.007.023-.013.053-.025.085a5.156,5.156,0,0,1-.781-.3c-4.951-2.32-2.767-8.953-2.767-8.953l1.938.958,4.524,3.469a20.634,20.634,0,0,0-2.726,4.229A2.942,2.942,0,0,0,224.718,123.754Z" transform="translate(-217.245 -113.886)" fill="#263238"/>
            </g>
            <g id="Group_48" data-name="Group 48" transform="translate(1.492)">
              <path id="Path_2141" data-name="Path 2141" d="M244.418,95.582a5.176,5.176,0,0,1,2.276,3.99,10.3,10.3,0,0,1-1.238,5.141C245.22,104.8,244.418,95.582,244.418,95.582Z" transform="translate(-230.356 -90.933)" fill="#263238"/>
              <g id="Group_40" data-name="Group 40" transform="translate(1.886 2.451)">
                <path id="Path_2142" data-name="Path 2142" d="M221.533,94.8c-1.36,2.685-1.291,11.137.407,13.315,2.462,3.158,7.2,4.246,10.067,1.124,2.775-3.026,2.49-14.041.527-16.093C229.643,90.126,223.543,90.837,221.533,94.8Z" transform="translate(-220.583 -91.28)" fill="#eb9481"/>
              </g>
              <path id="Path_2143" data-name="Path 2143" d="M222.87,124.012v0" transform="translate(-219.816 -104.838)" fill="none" stroke="#f5a79e" stroke-linecap="round" stroke-linejoin="round"/>
              <g id="Group_45" data-name="Group 45" transform="translate(8.416 9.44)">
                <g id="Group_41" data-name="Group 41" transform="translate(0.384 2.714)">
                  <path id="Path_2144" data-name="Path 2144" d="M235.988,111.427c-.005-.022-.044.028-.043.052.032.576-.029,1.24-.546,1.444-.016.006-.014.035.006.032C236.038,112.85,236.11,111.967,235.988,111.427Z" transform="translate(-234.739 -110.836)" fill="#263238"/>
                  <path id="Path_2145" data-name="Path 2145" d="M234.838,110.276c-.928-.049-.957,1.812-.1,1.856S235.616,110.317,234.838,110.276Z" transform="translate(-234.118 -110.275)" fill="#263238"/>
                </g>
                <g id="Group_42" data-name="Group 42" transform="translate(4.738 2.689)">
                  <path id="Path_2146" data-name="Path 2146" d="M242.688,111.385c0-.022.044.028.043.052-.027.576.038,1.24.556,1.44.016.006.014.035-.005.032C242.648,112.808,242.569,111.926,242.688,111.385Z" transform="translate(-242.641 -110.79)" fill="#263238"/>
                  <path id="Path_2147" data-name="Path 2147" d="M243.227,110.227c.928-.056.971,1.8.111,1.855S242.449,110.273,243.227,110.227Z" transform="translate(-242.656 -110.226)" fill="#263238"/>
                </g>
                <path id="Path_2148" data-name="Path 2148" d="M233.888,106.262a7.255,7.255,0,0,0,.724-.242,1.234,1.234,0,0,0,.691-.388.393.393,0,0,0-.056-.477.975.975,0,0,0-.981-.116,1.432,1.432,0,0,0-.835.607A.419.419,0,0,0,233.888,106.262Z" transform="translate(-233.366 -104.962)" fill="#263238"/>
                <path id="Path_2149" data-name="Path 2149" d="M243.569,107.918a7.3,7.3,0,0,1-.736-.2,1.233,1.233,0,0,1-.711-.35.394.394,0,0,1,.03-.48.976.976,0,0,1,.974-.168,1.429,1.429,0,0,1,.866.561A.419.419,0,0,1,243.569,107.918Z" transform="translate(-237.616 -105.794)" fill="#263238"/>
                <path id="Path_2150" data-name="Path 2150" d="M233.94,122.108c.136.137.271.325.479.346a1.514,1.514,0,0,0,.622-.135.02.02,0,0,1,.025.03.776.776,0,0,1-.736.3.613.613,0,0,1-.445-.516C233.876,122.1,233.92,122.088,233.94,122.108Z" transform="translate(-233.619 -113.344)" fill="#263238"/>
                <g id="Group_43" data-name="Group 43" transform="translate(1.17 0.734)">
                  <path id="Path_2151" data-name="Path 2151" d="M238.153,111.966s.025.862-.019,1.263a8.414,8.414,0,0,0-2.352.084c-.182.04-.165-.108.046-.205a3.435,3.435,0,0,1,2-.265c.04-.108-.062-1.327,0-1.325a3.51,3.51,0,0,1,.888.306c0-1.8-.286-3.581-.258-5.371a.055.055,0,0,1,.107-.014,29.052,29.052,0,0,1,.524,5.773C239.1,112.443,238.306,112.051,238.153,111.966Z" transform="translate(-235.657 -106.399)" fill="#263238"/>
                </g>
                <g id="Group_44" data-name="Group 44" transform="translate(0.717 7.255)">
                  <path id="Path_2152" data-name="Path 2152" d="M236.572,119.166a2.584,2.584,0,0,1-1.073,1.282c-.772.313-1.038-.386-.249-1A2.49,2.49,0,0,1,236.572,119.166Z" transform="translate(-234.772 -119.163)" fill="#263238"/>
                  <path id="Path_2153" data-name="Path 2153" d="M235.765,120.7a1.043,1.043,0,0,1-.271.158c-.71.286-.991-.281-.419-.853C235.464,120.04,235.888,120.183,235.765,120.7Z" transform="translate(-234.77 -119.577)" fill="#ff99ba"/>
                </g>
              </g>
              <g id="Group_46" data-name="Group 46" transform="translate(1.006)">
                <path id="Path_2154" data-name="Path 2154" d="M220.3,99.688c.934.287,2.009-2.522,2.313-3.6.268-.952.577-3.971.622-4.177s4.073,2.672,6.427,1.984,3.928-2.8,3.96-3.788-2.891-3.49-5.421-3.618-5.954,3.087-5.954,3.087a11.733,11.733,0,0,0,1.123-1.5,2.77,2.77,0,0,0-1.975,1.7s.323-1.461.2-1.489-1.394,1.225-1.107,2.173a5,5,0,0,0-1.605,2.668C218.749,94.521,219.2,99.351,220.3,99.688Z" transform="translate(-218.861 -86.483)" fill="#263238"/>
                <path id="Path_2155" data-name="Path 2155" d="M234.663,97.669a7.891,7.891,0,0,1-2.224.8,5.3,5.3,0,0,1-2.538-.407,8.011,8.011,0,0,1-2.226-1.318c-.589-.485-1.111-1.07-1.74-1.5-.157-.108-.34.119-.243.263a8.463,8.463,0,0,0,4.272,3.145,4.857,4.857,0,0,0,4.708-.959C234.68,97.681,234.675,97.663,234.663,97.669Z" transform="translate(-222.189 -90.752)" fill="#263238"/>
              </g>
              <g id="Group_47" data-name="Group 47" transform="translate(0 10.436)">
                <path id="Path_2156" data-name="Path 2156" d="M220.314,109.43s-1.449-2.944-2.757-2.466-.5,4.544.832,5.289a1.456,1.456,0,0,0,2.048-.477Z" transform="translate(-216.892 -106.911)" fill="#eb9481"/>
                <path id="Path_2157" data-name="Path 2157" d="M218.68,109.283a.02.02,0,0,0-.013.037,3.683,3.683,0,0,1,1.531,2.567.8.8,0,0,0-1.156-.4c-.029.014-.01.059.019.057a.9.9,0,0,1,.927.459,4.321,4.321,0,0,1,.345.86c.033.1.2.073.182-.034l0-.025C220.73,111.543,220.019,109.62,218.68,109.283Z" transform="translate(-217.755 -108.071)" fill="#263238"/>
              </g>
            </g>
          </g>
          <g id="Group_55" data-name="Group 55" transform="translate(21.129 22.665)">
            <g id="Group_52" data-name="Group 52" transform="translate(0.904 1.346)">
              <path id="Path_2158" data-name="Path 2158" d="M204.737,135.565c-1,5.787,5.25,25.288,9.273,28.93,5.983,5.417,17.045,8.978,21.053,10.137,1.747.505,6.58-11.788,4.813-12.6-3.786-1.734-15.546-5.4-16.653-6.344s-7.865-10.664-10.869-16.272C208.323,131.9,205.242,132.638,204.737,135.565Z" transform="translate(-204.63 -133.483)" fill="#eb9481"/>
              <g id="Group_51" data-name="Group 51" transform="translate(25.276 27.47)">
                <path id="Path_2159" data-name="Path 2159" d="M261.1,187.255s5.216,1.329,8.587,2.359c1.88.574,5.016,1.847,6.2,2.9,1.777,1.577,8.2,9.3,6.364,10.9-1.665,1.447-6.344-5.894-6.344-5.894s5.376,6.99,3.05,8.364-6.509-7.623-6.509-7.623,5.363,7.305,2.74,8.342c-1.982.784-6.23-7.151-6.23-7.151s4.566,6.311,2.562,7.205c-2.214.987-6.595-6.091-6.595-6.091-5.475,1.415-8.662-.151-10.8-1.535C253.617,198.7,261.1,187.255,261.1,187.255Z" transform="translate(-254.108 -187.255)" fill="#eb9481"/>
                <g id="Group_50" data-name="Group 50" transform="translate(13.917 7.725)">
                  <path id="Path_2160" data-name="Path 2160" d="M293.416,202.384c.661.8,1.336,1.6,1.924,2.456s1.146,1.73,1.652,2.635a17.7,17.7,0,0,1,1.633,3.709,38.146,38.146,0,0,0-3.526-6.191c-.587-.853-1.131-1.734-1.717-2.588C293.368,202.384,293.4,202.366,293.416,202.384Z" transform="translate(-287.233 -202.377)" fill="#263238"/>
                  <path id="Path_2161" data-name="Path 2161" d="M287.308,206.433a21.94,21.94,0,0,1,4.427,6.483c.039.094-.012.086-.067,0-.718-1.107-3.618-5.4-4.386-6.467C287.27,206.434,287.293,206.421,287.308,206.433Z" transform="translate(-284.249 -204.358)" fill="#263238"/>
                  <path id="Path_2162" data-name="Path 2162" d="M281.409,208.958a15.91,15.91,0,0,1,3.28,5.12c.039.093-.035.079-.089-.009-1.058-1.723-1.876-3.082-3.245-5.066C281.333,208.973,281.378,208.928,281.409,208.958Z" transform="translate(-281.349 -205.591)" fill="#263238"/>
                </g>
              </g>
            </g>
            <g id="Group_54" data-name="Group 54">
              <path id="Path_2163" data-name="Path 2163" d="M209.557,134.7c-4.665-6.6-7.452-4.151-6.517,3.01a114.861,114.861,0,0,0,3.222,14.675l11.771-5.7S212.542,138.924,209.557,134.7Z" transform="translate(-202.86 -130.848)" fill="#dacfaf"/>
              <g id="Group_53" data-name="Group 53" transform="translate(1.501 0.199)">
                <line id="Line_22" data-name="Line 22" x2="0.411" y2="2.369" transform="translate(8.046 6.248)" fill="none" stroke="#fff" stroke-width="0.5"/>
                <line id="Line_23" data-name="Line 23" y1="0.411" x2="2.369" transform="translate(1.081 9.848)" fill="none" stroke="#fff" stroke-width="0.5"/>
                <line id="Line_24" data-name="Line 24" x1="1.385" y2="1.966" fill="none" stroke="#fff" stroke-width="0.5"/>
                <line id="Line_25" data-name="Line 25" x1="1.385" y2="1.966" transform="translate(9.932 13.34)" fill="none" stroke="#fff" stroke-width="0.5"/>
                <line id="Line_26" data-name="Line 26" x1="1.966" y1="1.385" transform="translate(1.207 15.957)" fill="none" stroke="#fff" stroke-width="0.5"/>
              </g>
              <path id="Path_2164" data-name="Path 2164" d="M219,142.27c.626.862,1.275,1.707,1.922,2.553-.164-.428-.306-.86-.433-1.3a.016.016,0,0,1,.031-.01c.131.339.276.673.4,1.014q.09.246.184.49l.041.1c.5.661,1,1.323,1.489,2,.578.8,1.136,1.623,1.7,2.439.579.844,1.128,1.834,1.74,2.654a6.608,6.608,0,0,1-1.144.571c-.1.058-.176-.043-.064-.077s.97-.565.98-.575c-.56-.824-1.211-1.585-1.8-2.39s-1.169-1.6-1.735-2.415c-1.149-1.653-2.2-3.371-3.345-5.031C218.946,142.27,218.98,142.249,219,142.27Z" transform="translate(-210.734 -136.431)" fill="#263238"/>
              <path id="Path_2165" data-name="Path 2165" d="M203.715,151.307c.179.348.371.693.53,1.051.065.148.13.3.2.444q-.4-1.913-.793-3.828c0-.015.019-.023.023-.008.539,2.067,1.084,4.133,1.585,6.21a60.567,60.567,0,0,1,1.328,6.006,7.049,7.049,0,0,1,1.106-.373,5.249,5.249,0,0,1-1.214.587,62.591,62.591,0,0,1-1.533-6.249c-.128-.572-.247-1.146-.369-1.719-.132-.345-.294-.678-.451-1.014-.167-.355-.3-.727-.445-1.091C203.67,151.3,203.7,151.286,203.715,151.307Z" transform="translate(-203.245 -139.707)" fill="#263238"/>
              <path id="Path_2166" data-name="Path 2166" d="M209.868,164.23c1.635-.923,8.468-4.459,10-5.126.106-.047.161.008.058.07a103.455,103.455,0,0,1-10.015,5.117C209.866,164.312,209.827,164.253,209.868,164.23Z" transform="translate(-206.28 -144.661)" fill="#263238"/>
            </g>
          </g>
        </g>
      </g>
    </g>
    <g id="Folder" transform="translate(136.293 307.563)">
      <g id="Group_63" data-name="Group 63" transform="translate(0 0)">
        <g id="Group_60" data-name="Group 60" transform="translate(22.71)">
          <g id="Group_58" data-name="Group 58">
            <path id="Path_2167" data-name="Path 2167" d="M427.289,309.84H271.638L294.145,182.2h155.65Z" transform="translate(-271.638 -168.981)" fill="#bcb192"/>
            <path id="Path_2168" data-name="Path 2168" d="M368.965,156.325h-50.94l-2.331,13.219h54.515Z" transform="translate(-293.187 -156.325)" fill="#bcb192"/>
          </g>
          <g id="Group_59" data-name="Group 59" transform="translate(0 13.219)" opacity="0.1">
            <path id="Path_2169" data-name="Path 2169" d="M427.289,309.84H271.638L294.145,182.2Z" transform="translate(-271.638 -182.2)" fill="#2b1400"/>
          </g>
        </g>
        <g id="Group_61" data-name="Group 61" transform="translate(28.683 0.947)">
          <line id="Line_27" data-name="Line 27" y1="4.446" transform="translate(13.368)" fill="none" stroke="#263238" stroke-width="1"/>
          <line id="Line_28" data-name="Line 28" x1="2.223" y1="3.85" transform="translate(6.618 1.905)" fill="none" stroke="#263238" stroke-width="1"/>
          <line id="Line_29" data-name="Line 29" x1="3.85" y1="2.223" transform="translate(1.725 6.929)" fill="none" stroke="#263238" stroke-width="1"/>
          <line id="Line_30" data-name="Line 30" x1="4.446" transform="translate(0 13.727)" fill="none" stroke="#263238" stroke-width="1"/>
          <line id="Line_31" data-name="Line 31" x1="3.85" y2="2.223" transform="translate(1.905 18.253)" fill="none" stroke="#263238" stroke-width="1"/>
          <line id="Line_32" data-name="Line 32" x1="2.223" y2="3.85" transform="translate(6.929 21.519)" fill="none" stroke="#263238" stroke-width="1"/>
          <line id="Line_33" data-name="Line 33" y2="4.446" transform="translate(13.727 22.648)" fill="none" stroke="#263238" stroke-width="1"/>
          <line id="Line_34" data-name="Line 34" x2="2.223" y2="3.85" transform="translate(18.253 21.339)" fill="none" stroke="#263238" stroke-width="1"/>
          <line id="Line_35" data-name="Line 35" x2="3.85" y2="2.223" transform="translate(21.519 17.942)" fill="none" stroke="#263238" stroke-width="1"/>
          <line id="Line_36" data-name="Line 36" x2="4.446" transform="translate(22.648 13.368)" fill="none" stroke="#263238" stroke-width="1"/>
          <line id="Line_37" data-name="Line 37" y1="2.223" x2="3.85" transform="translate(21.339 6.618)" fill="none" stroke="#263238" stroke-width="1"/>
          <line id="Line_38" data-name="Line 38" y1="3.85" x2="2.223" transform="translate(17.942 1.725)" fill="none" stroke="#263238" stroke-width="1"/>
        </g>
        <path id="Path_2171" data-name="Path 2171" d="M405.316,314.277H249.33L227.184,191.27H383.169Z" transform="translate(-227.184 -173.418)" fill="#e0ce9b"/>
        <g id="Group_62" data-name="Group 62" transform="translate(47.569 80.081)">
          <ellipse id="Ellipse_982" data-name="Ellipse 982" cx="6.483" cy="6.483" rx="6.483" ry="6.483" fill="#263238"/>
          <ellipse id="Ellipse_983" data-name="Ellipse 983" cx="6.483" cy="6.483" rx="6.483" ry="6.483" transform="translate(51.253 0)" fill="#263238"/>
          <path id="Path_2172" data-name="Path 2172" d="M382.374,332.384l-.356-.679c-.033-.061-3.382-6.252-10.121-6.252-6.146,0-7.645,5.829-7.705,6.077l-.182.743-1.487-.359.179-.743c.017-.073,1.826-7.25,9.2-7.25,7.682,0,11.327,6.785,11.478,7.073l.356.678Z" transform="translate(-340.952 -318.382)" fill="#263238"/>
        </g>
      </g>
    </g>
    <g id="Speech_Bubble" data-name="Speech Bubble" transform="translate(149.667 261.204)">
      <g id="Group_72" data-name="Group 72" transform="translate(0)">
        <g id="Group_70" data-name="Group 70">
          <path id="Path_2187" data-name="Path 2187" d="M287.845,81.859a12.729,12.729,0,0,1-21.273,8.054l-6.37.935,3.187-5.507a12.734,12.734,0,1,1,24.456-3.482Z" transform="translate(-259.773 -67.687)" fill="#fff"/>
          <path id="Path_2188" data-name="Path 2188" d="M287.435,81.751a12.818,12.818,0,0,1-2.57,6.455,11.514,11.514,0,0,1-2.5,2.466,12.551,12.551,0,0,1-3.072,1.71,12.7,12.7,0,0,1-3.428.817,12.548,12.548,0,0,1-1.769.034,11.158,11.158,0,0,1-1.762-.183,12.849,12.849,0,0,1-6.3-3.11l.151.046-6.364.977-.462.071.234-.407,3.168-5.518-.015.218a12.877,12.877,0,0,1,.784-11.349,13.025,13.025,0,0,1,3.988-4.246,12.954,12.954,0,0,1,11.192-1.507,13.008,13.008,0,0,1,4.91,3.011A12.807,12.807,0,0,1,287.435,81.751Zm0,0A12.6,12.6,0,0,0,273,67.972a12.513,12.513,0,0,0-5.259,2.078,13.112,13.112,0,0,0-3.81,4.155,12.57,12.57,0,0,0-1.616,5.388,12.724,12.724,0,0,0,.9,5.547l.046.114-.061.1-3.206,5.5-.228-.336,6.376-.893.088-.012.063.059a12.54,12.54,0,0,0,6.1,3.14,10.9,10.9,0,0,0,1.727.21,12.323,12.323,0,0,0,1.743,0,12.543,12.543,0,0,0,3.4-.749,11.836,11.836,0,0,0,3.071-1.655,11.438,11.438,0,0,0,2.5-2.437A12.8,12.8,0,0,0,287.435,81.751Z" transform="translate(-259.362 -67.579)" fill="#263238"/>
        </g>
        <g id="Group_71" data-name="Group 71" transform="translate(9.183 5.63)">
          <path id="Path_2189" data-name="Path 2189" d="M277.338,91.754a1.238,1.238,0,0,1,1.245-1.309,1.311,1.311,0,0,1,0,2.618A1.238,1.238,0,0,1,277.338,91.754Zm.528-3.02-.3-10.135H279.6l-.3,10.135Z" transform="translate(-277.338 -78.599)" fill="#e9d6a0"/>
          <path id="Path_2190" data-name="Path 2190" d="M286.845,91.754a1.238,1.238,0,0,1,1.246-1.309,1.311,1.311,0,0,1,0,2.618A1.238,1.238,0,0,1,286.845,91.754Zm.528-3.02-.3-10.135H289.1l-.3,10.135Z" transform="translate(-281.988 -78.599)" fill="#e9d6a0"/>
          <path id="Path_2191" data-name="Path 2191" d="M296.352,91.754a1.238,1.238,0,0,1,1.246-1.309,1.311,1.311,0,0,1,0,2.618A1.238,1.238,0,0,1,296.352,91.754Zm.528-3.02-.3-10.135h2.027l-.3,10.135Z" transform="translate(-286.638 -78.599)" fill="#e9d6a0"/>
        </g>
      </g>
    </g>
  </g>
</svg>
