<svg xmlns="http://www.w3.org/2000/svg" width="343" height="329" viewBox="0 0 343 329">
  <g id="Group_1647" data-name="Group 1647" transform="translate(-196.12 -183.872)">
    <g id="Layer_9" data-name="Layer 9" transform="translate(205.537 230.105)">
      <path id="Path_1" data-name="Path 1" d="M265.1,656.708s-36.445-146.893,35.383-146.893c37.951,0,22.317-40.3,48.119-86.946s116.037-83.907,135.243,6.161-28.259,158.453,17.606,146.722c55.115-14.1,76.887,80.956,76.887,80.956Z" transform="translate(-255.856 -374.04)" fill="#fffefd"/>
    </g>
    <g id="Layer_2" data-name="Layer 2" transform="translate(343.621 223.075)">
      <g id="Group_1" data-name="Group 1" transform="translate(0 0)">
        <path id="Path_2" data-name="Path 2" d="M1732.714,492.159c-.733-.172-2.941,2.977-2.941,2.977h0c-4.716.84-11.61,2.771-14.092,3.508-1.76.523-6.491-1.965-11.113-4.821-5.5-3.4-10.839-7.318-10.839-7.318-3.05-.24-6.514,8.342-.328,13.8.944.833,4.493,2.255,8.578,3.553h0c5.636,1.791,12.294,3.345,14.561,2.8,2.633-.635,10.085-4.839,14.517-8.059h0l.012-.009.049-.036a4.1,4.1,0,0,1,2.075-.871c.83.076,2.68-2.268,2.736-2.893S1733.447,492.33,1732.714,492.159Z" transform="translate(-1644.154 -452.128)" fill="#ed975d"/>
        <path id="Path_3" data-name="Path 3" d="M1675.893,725.158l-2.6.813s-11.882-20.588-13.715-29.251c-.981-4.63-7.254-6.63-13.81-9.244-5.706-2.275-11.626-5.016-14.453-10.364-6.077-11.491,3.817-25.61,3.817-25.61s10.519,9.641,19.593,19.6c6.343,6.961,11.98,14.076,12.83,18.166C1669.621,699.216,1674,718.12,1675.893,725.158Z" transform="translate(-1593.092 -577.017)" fill="#b9a282"/>
        <path id="Path_4" data-name="Path 4" d="M1896.218,956.982h1.461c.489-.118.85-.337,1.352-.438a1.077,1.077,0,0,1,1.182.438.23.23,0,0,1,.014.023h6.2a3.546,3.546,0,0,0-.141-1.726,1.171,1.171,0,0,0-.581-.819,5.906,5.906,0,0,1-3.143-2.214,46.86,46.86,0,0,0-3.227-3.424l-.013-.005c-.056,0-.324.128-1.488,1.644-.6.782-1.627-1.1-1.627-1.1a2.381,2.381,0,0,0-.336.7,3.531,3.531,0,0,0-.133,1.468,14.165,14.165,0,0,1-.445,3.548c-.144.657-.266,1.122-.266,1.122S1894.962,956.74,1896.218,956.982Z" transform="translate(-1816.892 -802.05)" fill="#233862"/>
        <path id="Path_5" data-name="Path 5" d="M1654.729,671.1l-8.957,16.373c-5.706-2.275-11.626-5.016-14.453-10.364-6.077-11.491,3.817-25.61,3.817-25.61S1645.654,661.144,1654.729,671.1Z" transform="translate(-1593.092 -577.017)" fill="#a59179"/>
        <path id="Path_6" data-name="Path 6" d="M1584.531,677.585s-.722,3.512-1.9,8.795c-1.486,6.68-3.7,16.192-6.1,25.012-.528,1.938-1.065,3.844-1.605,5.678-2,6.788-4.042,12.606-5.842,15.563-3.234,5.316-11.1,39.491-11.1,39.491l-1.959-.837s-2.732-29.182,6.945-45.787a1.345,1.345,0,0,0,.2-.62.011.011,0,0,0,0-.006c.129-2.458.589-13.465,1.591-24.619.247-2.737.525-5.48.839-8.109.02-.168.041-.334.06-.5,1.472-12.155,2.882-17.562,4.7-20.281l13.378,5.873Z" transform="translate(-1531.034 -592.05)" fill="#b9a282"/>
        <path id="Path_7" data-name="Path 7" d="M1550.2,1077.657h1.46c.489-.119.85-.337,1.352-.439a1.078,1.078,0,0,1,1.182.439l.014.022h6.2a3.552,3.552,0,0,0-.14-1.725,1.173,1.173,0,0,0-.581-.819,5.9,5.9,0,0,1-3.143-2.213,46.976,46.976,0,0,0-3.227-3.424l-.013,0c-.056,0-.324.128-1.488,1.644-.6.782-1.627-1.1-1.627-1.1a2.39,2.39,0,0,0-.336.7,3.541,3.541,0,0,0-.133,1.469,14.18,14.18,0,0,1-.445,3.547c-.145.657-.267,1.122-.267,1.122S1548.94,1077.415,1550.2,1077.657Z" transform="translate(-1525.422 -893.387)" fill="#233862"/>
        <path id="Path_8" data-name="Path 8" d="M1427.033,529.521s-2.238,8.444-4.819,16.665c-2.171,6.911-4.583,13.662-6.113,15.1-2.156,2.032-8.1,7.762-11.951,12.037,0,0-3.008-.035-3.474.853s-1.545,4.877-1.231,5.281,2.706.217,3.287-.7a5.075,5.075,0,0,1,1.915-1.511l.052-.025.012-.005h0c4.683-2.221,12.029-6.85,14.253-9.114,1.914-1.949,6.159-10.011,9.544-17.187h0c2.454-5.2,4.457-9.936,4.792-11.533C1435.492,528.926,1429.184,526.177,1427.033,529.521Z" transform="translate(-1399.388 -483.673)" fill="#ffb27d"/>
        <path id="Path_9" data-name="Path 9" d="M1580.677,357.856c-.266-.6-.534-1.125-.8-1.6a1.725,1.725,0,0,0,.988-.229c.786-.5,1.144-4.348,1.026-5.489s-1.209-4.44-2.555-4.769-2.737,1.976-2.737,1.976c.249-1.664,2.526-2.624,2.526-2.624-4.69,1.334-4.451,6.158-4.419,6.6-4.294-2.359-6.814,10.11-6.814,10.11l11.122,10.107s.029-2.754,1.091-2.577C1581.757,369.645,1583.135,363.379,1580.677,357.856Z" transform="translate(-1541.326 -345.124)" fill="#2c3a64"/>
        <path id="Path_10" data-name="Path 10" d="M1610.155,462.4c-2.552,1.855-5.938-.817-5.92-.845a5.6,5.6,0,0,0-.058-2.669,26.007,26.007,0,0,0-1.549-5.51c-.182-.478-.364-.956-.583-1.462l.292-.168,4.958-3.064s.8,2.221,1.641,4.245c.711,1.687,1.458,3.2,1.786,3.149C1610.738,456.05,1614.019,459.536,1610.155,462.4Z" transform="translate(-1570.095 -423.508)" fill="#ffb27d"/>
        <path id="Path_11" data-name="Path 11" d="M1610.41,451.807c-.128,2.726-.729,7.646-3.117,9.445a26.01,26.01,0,0,0-1.549-5.51Z" transform="translate(-1573.212 -425.871)" fill="#ed975d"/>
        <path id="Path_12" data-name="Path 12" d="M1574.512,420.889s6.455-3.924,4.809-10.085-1.922-10.817-6.113-8.572-4.358,5.1-4.133,7.364S1572.791,421.75,1574.512,420.889Z" transform="translate(-1542.271 -387.913)" fill="#ffb27d"/>
        <path id="Path_13" data-name="Path 13" d="M1572.671,407.4a5.4,5.4,0,0,0,3.85-2.506s-2.745-1.215-4.358-5.36a4.844,4.844,0,0,0-5.832,1.17,3.391,3.391,0,0,0-.314,1.08c-.569-.288-1.425-.213-1.918,2.267-.741,3.725,1.9,7.793,1.9,7.793.64-.279-.082-3.6-.183-5.371a12.111,12.111,0,0,1,.628-3.765c.316.632,3.46,6.726,7.3,6.969a15.382,15.382,0,0,1-3.874-3.208A3.582,3.582,0,0,0,1572.671,407.4Z" transform="translate(-1538.021 -385.913)" fill="#2c3a64"/>
        <path id="Path_14" data-name="Path 14" d="M1581.7,494.913c-.055-.3-.113-.606-.175-.922a32.891,32.891,0,0,0,1.629-7.528,22.87,22.87,0,0,0-.31-7.365s-4.478-3.661-6.454-4.127a.083.083,0,0,0-.025-.011.763.763,0,0,0-.08-.011c-2-.425-6.316.936-6.316.936s.833,3.422-1.518,5.7-4.862-.584-4.862-.584c-.076.079-.157.165-.24.255h0s-6.187,6.295-6.742,7.734-2.934,8.561-2.934,8.561.754,5.979,9.112,6.48a42.649,42.649,0,0,1,1.384,7.167c.664,8.117-.107,14.52.667,19.258s14.718,2.036,17.243,1.125,1.957-5.07,2.152-9.11C1584.474,517.394,1582.521,499.391,1581.7,494.913Z" transform="translate(-1529.349 -443.323)" fill="#195860"/>
        <path id="Path_15" data-name="Path 15" d="M1718.274,516.791a32.893,32.893,0,0,1-1.641,7.561c-.219-1.49-1.112-6.943-2.552-9.417A9.2,9.2,0,0,1,1718.274,516.791Z" transform="translate(-1664.47 -473.651)" fill="#195860"/>
      </g>
    </g>
    <g id="Layer_3" data-name="Layer 3" transform="translate(284.538 274.172)">
      <g id="Group_5" data-name="Group 5">
        <path id="Path_16" data-name="Path 16" d="M1380.379,720.107s2.6-4.855,3.157-5.429,3.013-1.58,3.154-1.378.147.5-.157.91-1.464,1.458-1.3,1.576,3.667-2.57,4.172-1.666-.286,4.636-1.635,6.425-5.376,2.552-5.63,2.8C1379.992,725.465,1380.379,720.107,1380.379,720.107Z" transform="translate(-1306.517 -673.832)" fill="#ed975d"/>
        <path id="Path_17" data-name="Path 17" d="M1090.393,655.262s3.732,6.829,8.485,3.972a32.3,32.3,0,0,0,1.037-6.625c0-.346,0-.681.008-1,.026-3.166.094-4.942.094-4.942l0,0c-.216-.139-7.266-4.6-7.26-4.232C1092.874,651,1090.393,655.262,1090.393,655.262Z" transform="translate(-1062.271 -620.198)" fill="#ffb27d"/>
        <path id="Path_18" data-name="Path 18" d="M1109.827,650.651c.68,1.943,3.012,5.745,6.462,7.133.025-3.166.095-4.942.095-4.942h0C1116.184,652.76,1109.624,650.078,1109.827,650.651Z" transform="translate(-1078.637 -626.373)" fill="#ed975d"/>
        <path id="Path_19" data-name="Path 19" d="M1106.231,595.83s-7.928,2.875-9.012-4.766-2.839-12.416,2.177-14.574,6.417.425,7.181,2.839S1108.265,594.886,1106.231,595.83Z" transform="translate(-1067.008 -569.69)" fill="#ffb27d"/>
        <path id="Path_20" data-name="Path 20" d="M1075.9,574.495c-.108.107-1.814.915-5.045-9.01a12.879,12.879,0,0,1,.33-7.906c1.182-2.978,5.374-5.319,8.856-6.338s4.319,2,5.139,5.04a15.7,15.7,0,0,0,3.347,5.813c-3,2.587-6.62-1.113-7.873-.5s-1.7,3.654-1.79,4.63-.239,1.787-1.814.915-.712,3.444-.46,4.269C1076.591,571.4,1076.805,573.6,1075.9,574.495Z" transform="translate(-1045.42 -551.039)" fill="#a9453d"/>
        <g id="Group_2" data-name="Group 2" transform="translate(0 93.862)">
          <path id="Path_21" data-name="Path 21" d="M922.071,1374.623h-4.8c-1.006,0-2.124-1.574-2.4-4.457s-2.348-4.458-2.8-6.817,1.846-5.683,1.846-5.683l.383-.77.4-.8,3.8,1.4s.094,1.415.153,3.217c.041,1.3.063,2.806.015,4.125-.112,3.147.564,6.535,2.353,7.148S922.071,1374.623,922.071,1374.623Z" transform="translate(-912.012 -1254.234)" fill="#2c3a64"/>
          <path id="Path_22" data-name="Path 22" d="M1115.144,1398.359h-12.724a.871.871,0,0,1-.27-.125c-.849-.675-.583-5.839-.481-7.435.02-.3.033-.469.033-.469s4.474-5.682,5.09-1.331c.019.136.042.269.066.4v0a8.485,8.485,0,0,0,6.255,6.435A2.864,2.864,0,0,1,1115.144,1398.359Z" transform="translate(-1071.666 -1277.897)" fill="#2c3a64"/>
          <path id="Path_23" data-name="Path 23" d="M1070.079,960.213s-.679,13.074-1.478,28.79c-1.085,21.35-2.391,47.573-2.52,52.541-.223,8.626-1.119,22.425-1.119,22.425a5.465,5.465,0,0,1-6.376,1.9,336.416,336.416,0,0,1-4.871-40.541c-.017-.342-.034-.686-.051-1.03-1.007-21.217-2.572-65.895-2.572-65.895Z" transform="translate(-1029.166 -953.227)" fill="#272421"/>
          <path id="Path_24" data-name="Path 24" d="M1070.079,960.213s-.679,13.074-1.478,28.79l-14.886,36.323c-.017-.342-.034-.686-.051-1.03-1.007-21.217-2.572-65.895-2.572-65.895Z" transform="translate(-1029.166 -953.227)" fill="#282625"/>
          <path id="Path_25" data-name="Path 25" d="M959.991,945.656s-12.249,47.351-20.3,69.6-10.57,28.462-10.57,28.462-4.615-2.846-5.034-4.787c0,0,3.08-42.959,8.473-53.431,3.047-5.917,6.627-23.675,6.795-29.885s1.091-18.5,1.091-18.5Z" transform="translate(-922.182 -937.117)" fill="#272421"/>
        </g>
        <g id="Group_3" data-name="Group 3" transform="translate(3.764 35.821)">
          <path id="Path_26" data-name="Path 26" d="M941.891,932.529s-.317,5.913-.549,6.821a14.278,14.278,0,0,1-1.96,3.682c-.179-.04-.286-.262-.2-.835a12.979,12.979,0,0,0,.455-2.3c-.169.046-1.941,5.032-2.647,4.751s-1.4-3.825-.976-6.329,3.271-6.436,3.38-6.839C940.321,928.062,941.891,932.529,941.891,932.529Z" transform="translate(-935.89 -873.835)" fill="#ed975d"/>
          <path id="Path_27" data-name="Path 27" d="M956.61,758.573c1.356.671,1.573.519,1.573.519s6.6-18.526,7.267-20.222S979.46,718.1,979.46,718.1l-3.429-19.716s-15.174,30.3-16.813,34.651c-2.708,7.185-4.294,23.873-4.294,23.873A4.464,4.464,0,0,0,956.61,758.573Z" transform="translate(-951.923 -698.379)" fill="#5f6268"/>
        </g>
        <path id="Path_28" data-name="Path 28" d="M1047.811,712.111c-.048,4.049-.2,8.6-.406,13.224q-.019.412-.038.823c-.131,2.864-.274,5.734-.438,8.534-.066,1.122-.136,2.232-.209,3.321l-.011.147c-.006.408-.038.85-.067,1.254-.669,10.484-1.37,18.768-1.5,18.9a.576.576,0,0,1-.522.205c-1.783-.346-7.1.278-11.458-1.183-3.675-1.2-6.84-3.462-10.193-6.518-.445-.406-1.46-1.48-1.377-2.284.081-.883.231-2.158.421-3.762.661-5.577,1.8-15.17,2.19-26.4q.113-3.138.329-6.188a140.464,140.464,0,0,1,1.776-14.778c1.493-8.292,3.688-14.642,6.441-17.126.36-.311,2.295,1.589,4.073,3.347a5.8,5.8,0,0,0,5.051,1.845l1.479,2.523a32.481,32.481,0,0,1,4.22,13.565q.059.673.1,1.433C1047.816,705.468,1047.851,708.6,1047.811,712.111Z" transform="translate(-1004.312 -648.833)" fill="#5f6268"/>
        <path id="Path_29" data-name="Path 29" d="M1122.757,768.434c-.048,4.049-.2,8.6-.406,13.224q-.019.411-.038.823c-10.184-9.831-11.753-27.82-11.753-27.82a20.678,20.678,0,0,1,12.059,4.656C1122.763,761.791,1122.8,764.925,1122.757,768.434Z" transform="translate(-1079.259 -705.156)" fill="#4c4e51"/>
        <g id="Group_4" data-name="Group 4" transform="translate(30.394 39.862)">
          <path id="Path_30" data-name="Path 30" d="M1149.819,721.9c-.525-2.19-1.341-2.048-1.341-2.048s-15.142,5.82-16.5,6.069-16.307-9-16.307-9-5.884-4.072-8.64-.354c-2.395,3.231-2.5,7.324-1.943,10.761.667,4.1,2.915,7.122,5.632,7.656,6.1,1.2,18.265,3.452,20.815,2.905,5.676-1.219,18.536-12.667,18.536-12.667A11.169,11.169,0,0,0,1149.819,721.9Z" transform="translate(-1104.806 -715.001)" fill="#5f6268"/>
        </g>
      </g>
    </g>
    <g id="Layer_4" data-name="Layer 4" transform="translate(402.991 183.872)">
      <g id="man">
        <g id="Group_6" data-name="Group 6" transform="translate(36.725 83.706)">
          <path id="Path_31" data-name="Path 31" d="M2296.734,915s2.1,3.007,1.693,5.143-2.309,3.561-2.565,6.172-1.283,4.035-2.207,4.035h-4.4s-.68-1.837.962-2.391,2.261-3.622,2.159-6.471.154-6.647.154-6.647l3.489-1.266Z" transform="translate(-2258.563 -819.876)" fill="#2c3a64"/>
          <path id="Path_32" data-name="Path 32" d="M2107.285,950.944a5.454,5.454,0,0,1-1.992.356h-9.958a2.651,2.651,0,0,1,1.894-2.49,7.685,7.685,0,0,0,5.737-5.739c.024-.115.044-.236.062-.355.564-3.877,4.669,1.186,4.669,1.186s.012.155.03.419C2107.821,945.747,2108.064,950.345,2107.285,950.944Z" transform="translate(-2095.335 -840.828)" fill="#2c3a64"/>
          <path id="Path_33" data-name="Path 33" d="M2110.44,549.367s.624,12,1.356,26.414c1,19.587,2.194,43.646,2.312,48.2.2,7.915,1.027,20.574,1.027,20.574a5.014,5.014,0,0,0,5.849,1.74,308.635,308.635,0,0,0,4.469-37.194c.016-.313.031-.629.046-.945.924-19.466,2.36-60.456,2.36-60.456Z" transform="translate(-2108.059 -542.957)"/>
          <path id="Path_34" data-name="Path 34" d="M2110.44,549.367s.624,12,1.356,26.414l13.657,33.325c.016-.313.031-.629.046-.945.924-19.466,2.36-60.456,2.36-60.456Z" transform="translate(-2108.059 -542.957)" fill="#111010"/>
          <path id="Path_35" data-name="Path 35" d="M2128.5,536.01s11.237,43.443,18.626,63.858,9.7,26.113,9.7,26.113,4.234-2.612,4.618-4.392c0,0-2.825-39.413-7.774-49.021-2.8-5.429-6.08-21.721-6.234-27.419s-1-16.973-1-16.973Z" transform="translate(-2123.271 -528.176)"/>
        </g>
        <g id="Group_7" data-name="Group 7" transform="translate(0 33.336)">
          <path id="Path_36" data-name="Path 36" d="M1869.677,460.3a23.478,23.478,0,0,0-3.561-1.021,6.255,6.255,0,0,0-2.331,1.436.361.361,0,0,0,.371.439c.31.032,1.331-.17,1.266.021s-3,1.082-3.037,1.994,1.578,2.608,2.939,2.722,4.036-2.325,4.266-2.355C1871.535,463.274,1869.677,460.3,1869.677,460.3Z" transform="translate(-1862.384 -425.658)" fill="#ffb27d"/>
          <path id="Path_37" data-name="Path 37" d="M1898.521,356.827a8.292,8.292,0,0,1-.335-2.489s12.355-10.3,13.487-11.348,13.9-22,13.9-22l13.078,5.551s-20.239,23.776-23.139,26.336c-4.793,4.231-15.893,6.626-15.893,6.626A7.067,7.067,0,0,1,1898.521,356.827Z" transform="translate(-1892.533 -320.991)" fill="#ddbe93"/>
        </g>
        <path id="Path_38" data-name="Path 38" d="M2040.288,249.893s-4.585,12.441-9.067,14.065a27.4,27.4,0,0,1,1.278-7.038c-.447-.813-.839-1.559-1.179-2.228-1.128-2.229-1.665-3.594-1.665-3.594l1.521-6.306,1.032-4.278a23.166,23.166,0,0,0,1.613,3.583C2036.759,249.3,2040.288,249.893,2040.288,249.893Z" transform="translate(-2003.285 -226.743)" fill="#ffb27d"/>
        <path id="Path_39" data-name="Path 39" d="M2033.822,255.248s.547,6.234-2.5,10.595c-1.128-2.229-1.665-3.594-1.665-3.594l1.521-6.306A5.922,5.922,0,0,1,2033.822,255.248Z" transform="translate(-2003.285 -237.894)" fill="#ed975d"/>
        <path id="Path_40" data-name="Path 40" d="M1991.017,224.393s6.851-4.119,5.122-10.658-2.009-11.475-6.456-9.122-4.632,5.379-4.4,7.779S1989.19,225.3,1991.017,224.393Z" transform="translate(-1965.854 -199.119)" fill="#ffb27d"/>
        <path id="Path_41" data-name="Path 41" d="M2069.776,337.525c-2.764,6.127-23.426,14.314-23.181,10.072a70.956,70.956,0,0,0,0-8.365q-.077-1.363-.219-2.89a93.965,93.965,0,0,0-4.553-21.032c-.209-.622-.426-1.248-.651-1.882a85.833,85.833,0,0,1-2.865-9.926c-1.432-6.38-2.008-12.483-1.286-16.474,0-.02.008-.037.012-.056,4.319-3.08,5.993-15.024,5.993-15.024s14.735,4.079,22.988,34.368C2066.01,306.316,2072.18,332.192,2069.776,337.525Z" transform="translate(-2009.224 -250.535)" fill="#ddbe93"/>
        <path id="Path_42" data-name="Path 42" d="M2073.914,419.124q-.078-1.363-.22-2.89a93.907,93.907,0,0,0-4.553-21.032c.477-4.464,1.137-8.176,1.86-9.846,2.939-6.792,4.651-7.854,4.651-7.854S2080.059,406.164,2073.914,419.124Z" transform="translate(-2036.546 -330.427)" fill="#c2aa88"/>
        <g id="Group_8" data-name="Group 8" transform="translate(5.643 27.368)">
          <path id="Path_43" data-name="Path 43" d="M1906.674,520.655a29.08,29.08,0,0,0-4.708.681,11.676,11.676,0,0,0-2.594,3.088c.022.294.171.477.568.347s1.632-.947,1.595-.672-3.522,3.014-3.351,4.177,2.586,2.405,4.321,1.8,4.53-5.143,4.81-5.308C1909.7,523.366,1906.674,520.655,1906.674,520.655Z" transform="translate(-1898.177 -466.145)" fill="#ddbe93"/>
          <path id="Path_44" data-name="Path 44" d="M1944.887,353.337c-.817-2.034-.228-2.963-.228-2.963s12.592-15.2,13.579-16.74,5.559-25.993,5.559-25.993,1.574-9.9,5.259-10.99c3.2-.948,5.416,1.495,6.864,4.359a15.374,15.374,0,0,1,.462,11.843c-3.215,8.355-9.7,24.938-11.595,27.771-4.215,6.306-18.318,15.118-18.318,15.118A6.616,6.616,0,0,1,1944.887,353.337Z" transform="translate(-1937.159 -296.443)" fill="#ddbe93"/>
        </g>
        <path id="Path_45" data-name="Path 45" d="M1983.479,186.34c.048-.146.187-.3.527-.463a.952.952,0,0,0-.69-.039c-.193-.724-.66-1.956-1.537-1.966a1.352,1.352,0,0,1,.689.978c-1.2-1.174-3.429-1.516-8.99,1.341-7.328,3.764-3.667,10.324-2.556,10.851s3.155-2.85,4.994-3.31,2.834,3.49,3.535,3.817.3-.571,1.037-1.472,1.155,1.218,1.14,2.705a4.848,4.848,0,0,0,1.416,2.9l.839-2.375c.84-2.375.611-11-.191-12.548C1983.622,186.619,1983.551,186.48,1983.479,186.34Z" transform="translate(-1952.211 -183.872)"/>
      </g>
    </g>
    <g id="Layer_5" data-name="Layer 5" transform="translate(270.391 488.423)">
      <g id="Group_10" data-name="Group 10" transform="translate(0)">
        <g id="Group_9" data-name="Group 9">
          <rect id="Rectangle_1" data-name="Rectangle 1" width="63.667" height="22.17" transform="translate(19.631 0.001)" fill="#25282b"/>
          <rect id="Rectangle_2" data-name="Rectangle 2" width="63.666" height="22.171" fill="#454a51"/>
        </g>
      </g>
    </g>
    <g id="Layer_6" data-name="Layer 6" transform="translate(345.833 408.404)">
      <g id="Group_13" data-name="Group 13">
        <g id="Group_12" data-name="Group 12" transform="translate(0 0)">
          <g id="Group_11" data-name="Group 11" transform="translate(0 0)">
            <rect id="Rectangle_3" data-name="Rectangle 3" width="47.407" height="102.185" transform="translate(62.024 102.185) rotate(180)" fill="#b27952"/>
            <rect id="Rectangle_4" data-name="Rectangle 4" width="47.407" height="102.185" transform="translate(47.407 102.185) rotate(180)" fill="#e7a967"/>
          </g>
        </g>
        <path id="Path_46" data-name="Path 46" d="M1689.37,1103.168l14.617,15.344v-15.344Z" transform="translate(-1641.964 -1103.168)" fill="#b27952"/>
      </g>
    </g>
    <g id="Layer_7" data-name="Layer 7" transform="translate(196.12 510.589)">
      <path id="Rectangle_5" data-name="Rectangle 5" d="M1.142,0H341.859A1.141,1.141,0,0,1,343,1.141v0a1.141,1.141,0,0,1-1.141,1.141H1.142A1.142,1.142,0,0,1,0,1.142v0A1.142,1.142,0,0,1,1.142,0Z" fill="#2e3552"/>
    </g>
    <g id="Layer_8" data-name="Layer 8" transform="translate(400.411 379.085)">
      <path id="Path_47" data-name="Path 47" d="M2284.688,982.575v19.664l-20.018-19.664Z" transform="translate(-2199.745 -982.574)" fill="#62656d"/>
      <rect id="Rectangle_6" data-name="Rectangle 6" width="64.925" height="131.503" transform="translate(0 0.001)" fill="#969eaa"/>
      <rect id="Rectangle_7" data-name="Rectangle 7" width="64.924" height="131.503" transform="translate(20.019)" fill="#62656d"/>
    </g>
  </g>
</svg>
