<svg xmlns="http://www.w3.org/2000/svg" width="343.005" height="329.003" viewBox="0 0 343.005 329.003">
  <g id="Group_50" data-name="Group 50" transform="translate(-1709.125 -986.807)">
    <path id="Path_1" data-name="Path 1" d="M1733.1,1313.807s-36.228-16.412-19.616-91.56,48.213-42.73,39.081-108.452c-12.041-86.665,38.948-145.6,95-121.6s41.032,50.684,106.907,23.816c80.308-32.756,87.082,103.521,68.456,148.787s50.843,51.794,22.149,149.006Z" fill="rgba(204,204,204,0.23)"/>
    <g id="Group_4" data-name="Group 4" transform="translate(-6.796 -7.182)">
      <path id="Path_8" data-name="Path 8" d="M1883.754,1320.942H1781.987c-2.21,0-4-2.9-4-6.468V1095.392c0-3.667,1.885-6.6,4.154-6.464l105.619,7.849v217.694C1887.758,1318.042,1885.973,1320.942,1883.754,1320.942Z" transform="translate(0 0)" fill="#195860"/>
      <path id="Path_9" data-name="Path 9" d="M1888.364,1320.942H1990.13c2.21,0,4-2.9,4-6.468V1095.392c0-3.667-1.885-6.6-4.154-6.464l-105.618,7.849v217.694C1884.36,1318.042,1886.156,1320.942,1888.364,1320.942Z" transform="translate(3.398 0)" fill="#195860"/>
      <path id="Path_10" data-name="Path 10" d="M1785.575,1098.13l-3.3,4.32a4.252,4.252,0,0,0-.738,2.52v212.4c0,1.777.874,3.218,1.951,3.218h8.215c1.125,0,2.016-1.562,1.948-3.413Z" transform="translate(0.113 0.294)" fill="#aec3ff"/>
      <path id="Path_11" data-name="Path 11" d="M1983.71,1098.13l3.3,4.32a4.25,4.25,0,0,1,.738,2.52v212.4c0,1.777-.874,3.218-1.951,3.218h-8.215c-1.125,0-2.016-1.562-1.948-3.413Z" transform="translate(6.313 0.294)" fill="#aec3ff"/>
      <path id="Path_12" data-name="Path 12" d="M1883.79,1320.7h-95.75c-2.079,0-3.766-2.8-3.766-6.249V1102.773c0-3.543,1.773-6.377,3.907-6.244l83.576,5.2c8.82.549,15.8,12.571,15.8,27.215v185.5C1887.557,1317.9,1885.875,1320.7,1883.79,1320.7Z" transform="translate(0.201 0.243)" fill="#fff"/>
      <path id="Path_13" data-name="Path 13" d="M1887.817,1320.7h96.373c1.909,0,3.456-2.568,3.456-5.735V1102.248c0-3.252-1.627-5.853-3.586-5.731l-85.671,5.335c-7.829.488-14.024,11.16-14.024,24.16V1314.96C1884.36,1318.13,1885.908,1320.7,1887.817,1320.7Z" transform="translate(3.398 0.242)" fill="#fff"/>
      <g id="Group_3" data-name="Group 3" transform="translate(1887.5 1138.903)">
        <rect id="Rectangle_2" data-name="Rectangle 2" width="0.519" height="137.441" fill="#f9dec7"/>
      </g>
    </g>
    <g id="Group_8" data-name="Group 8" transform="translate(1 -27.889)">
      <g id="Group_5" data-name="Group 5" transform="translate(1906.243 1039.815)">
        <path id="Path_14" data-name="Path 14" d="M1935.341,1127.985a2.268,2.268,0,0,1,.16,1.616v.008a9.911,9.911,0,0,1-1.981,3.454c-.12.152-.227.291-.318.422-.024.034-.049.069-.072.1l-.055.079c-.871,1.274-.546,1.571-2.109,4.16-1.783,2.953-3,2.988-3.348,2.713-.293-.234.311-1.8.984-3.564.032-.084.065-.17.1-.256.089-.235.177-.473.266-.7.783-2.121.588-3.122.422-6.295-.141-2.578-2.424-14.419-2.424-14.419l3.4-.9s.984,9.422,2.1,10.881c.6.779,1.273.8,1.848,1.375.041.041.082.082.12.125a5.8,5.8,0,0,1,.911,1.2Z" transform="translate(-1897.825 -1009.51)" fill="#ffb27d"/>
        <path id="Path_15" data-name="Path 15" d="M1935.173,1124.445a2.267,2.267,0,0,1,.16,1.616v.009a11.409,11.409,0,0,1-1.986,3.442c-.117.155-.221.3-.314.431-.024.034-.049.069-.072.1l-.055.079c-.871,1.274-.546,1.571-2.109,4.16-1.783,2.953-3,2.988-3.348,2.713-.293-.233.311-1.8.984-3.564a8.69,8.69,0,0,0,3.173-3.711c1.076-2.181,1.8-4.989,2.531-6.609.041.041.082.082.12.125a5.779,5.779,0,0,1,.916,1.208Z" transform="translate(-1897.657 -1005.97)" fill="#233862"/>
        <path id="Path_16" data-name="Path 16" d="M1916.42,1124.817c-.218,1.688-1.709,1.388-3.375.712s-1.266.11-3.644-.34-3.085-1.886-3.156-2.455c-.062-.5,1.113-.669,2.371-.889.159-.027.318-.056.477-.087,1.422-.27,2.468-1.735,3.765-2.935,1.226-1.135,3.071-5.8,3.071-5.8l3.254.453s-1.727,4.161-2.391,5.973a9.9,9.9,0,0,0-.335,3.57,10.931,10.931,0,0,1-.038,1.795Z" transform="translate(-1906.243 -1010.068)" fill="#ffb27d"/>
        <path id="Path_17" data-name="Path 17" d="M1913.045,1122.985c-1.665-.675-1.266.11-3.644-.34s-3.085-1.886-3.156-2.455c-.062-.5,1.113-.669,2.371-.889l.011.039a5.4,5.4,0,0,0,3.393,1.741c1.611.082,3.319-.643,4.432-.6a10.957,10.957,0,0,1-.032,1.794C1916.2,1123.955,1914.7,1123.659,1913.045,1122.985Z" transform="translate(-1906.243 -1007.519)" fill="#233862"/>
        <path id="Path_18" data-name="Path 18" d="M1933.5,1128.721s-.226.236-.562.539a6.643,6.643,0,0,1-1.484,1.038,3.891,3.891,0,0,1-1.527.321,3.529,3.529,0,0,1-.585-.034l-3.9-17.278-.7-3.123-.75-3.325-.261-1.156-1.266-5.625s3.1-12.82,6.267-6.708a15.7,15.7,0,0,1,1.084,3.157c.23.907.45,1.929.659,3.036.156.831.308,1.71.453,2.625.4,2.488.744,5.237,1.049,8C1932.979,1119.4,1933.5,1128.721,1933.5,1128.721Z" transform="translate(-1899.654 -1018.726)" fill="#233862"/>
        <path id="Path_19" data-name="Path 19" d="M1958.783,1105.816l-15.81,1.072c-3.462-1.155-6.386-4.108-8.372-5.693-.165-.132-.318-.256-.463-.37a8.285,8.285,0,0,0-1.336-.976c-1.2-.4-1.821,2.754-2.841,6.638-.208.79-.43,1.61-.681,2.437a14.368,14.368,0,0,1-.963,2.236c-.083.163-.17.329-.262.5-3.5,6.584-12.5,18.845-12.5,18.845s-.107,0-.281-.007a5.89,5.89,0,0,1-2.367-.461,3.53,3.53,0,0,1-.768-.641,2.472,2.472,0,0,1-.365-.529s10.778-33.957,16.358-43.208h0c.082-.141.16-.263.24-.384a5.262,5.262,0,0,1,1.6-1.828c1.9-.964,14.2.111,14.2.111l.393-1.028.657-.074.112-.013.549-.065h0l.757-.086,1.125-.128,3.039-.349.488-.055,5.625-.644s.257.932.6,2.477c.141.6.281,1.3.436,2.067C1958.965,1090.726,1960.259,1099.825,1958.783,1105.816Z" transform="translate(-1903.997 -1023.033)" fill="#0d0e0e"/>
        <path id="Path_20" data-name="Path 20" d="M1953.764,1064.151c-2.813-3.863-4.811-4.818-5.09-10.934-.152-3.32-2.918-14.3-7.594-13.343a4.417,4.417,0,0,1-1.18.111,3.135,3.135,0,0,0-2.378.962c-2.25,2.125-6.4,21.777-3.6,28.689a3.434,3.434,0,0,0,2.23,2.311l.36.328h0c.5.456,1.056.956,1.641,1.491,3.306,3,7.636,6.975,9.853,8.982h0l.378.345.644.578c.26.228.412.357.422.357a7.191,7.191,0,0,0,1.373.622,3.481,3.481,0,0,0,3.763-.562,8.037,8.037,0,0,0,1.193-1.664C1958.025,1078.355,1958.616,1070.817,1953.764,1064.151Z" transform="translate(-1895.379 -1039.815)" fill="#233862"/>
        <path id="Path_21" data-name="Path 21" d="M1938.011,1063.523c-.02.02,2.156,1.245,3.618.221,1.377-.962,2.433-4.587,2.412-4.59-.623-.053-1.305-.941-1.807-6.717l-.267.151-4.481,2.54s.314,2.315.513,4.517a11.2,11.2,0,0,1,.011,3.878Z" transform="translate(-1893.548 -1034.686)" fill="#ffb27d"/>
        <path id="Path_22" data-name="Path 22" d="M1937.49,1055.084s.191,1.623.457,3.938c2.57-.716,3.656-4.248,4.023-6.48Z" transform="translate(-1893.547 -1034.644)" fill="#ed975d"/>
        <path id="Path_23" data-name="Path 23" d="M1937.9,1060.98s6.12-1.253,5.577-7.383-.118-10.419-4.049-9.878-4.482,3.053-4.608,5.171S1936.3,1061.149,1937.9,1060.98Z" transform="translate(-1894.634 -1038.247)" fill="#ffb27d"/>
        <path id="Path_24" data-name="Path 24" d="M1934.99,1045.7s3.891,5.485,6.552,5.949a3.656,3.656,0,0,0,3.673-.9,18.2,18.2,0,0,1-2.489-5.517,2.223,2.223,0,0,0-1.536-1.8C1939.293,1043.151,1935.679,1042.983,1934.99,1045.7Z" transform="translate(-1894.563 -1038.405)" fill="#233862"/>
        <path id="Path_25" data-name="Path 25" d="M1937.647,1045.015a16.352,16.352,0,0,0-1.738,3.534,18.976,18.976,0,0,0-.228,6.338s-2.013-6.416-.844-9.508C1936.072,1042.1,1937.647,1045.015,1937.647,1045.015Z" transform="translate(-1894.773 -1038.187)" fill="#233862"/>
        <path id="Path_26" data-name="Path 26" d="M1934.16,1076.108c.1,19.947-.018,15.777,1.328,17.686a3.737,3.737,0,0,0,2.447.883c3.8.448,10.469-.482,10.727-1.61.893-3.9.281-5.123,1.037-11.1.079-.635.177-1.323.291-2.073.626-4.1,1.225-5.5-.906-12.128-1.934-6.008-3.948-10.887-4.132-10.715-5.191,4.887-5.589.726-5.589.726A39.391,39.391,0,0,0,1934.16,1076.108Z" transform="translate(-1894.9 -1032.814)" fill="#f5e9e9"/>
        <path id="Path_27" data-name="Path 27" d="M1932.638,1126.455s-.226.236-.562.539a6.643,6.643,0,0,1-1.484,1.038,3.891,3.891,0,0,1-1.527.321,3.529,3.529,0,0,1-.585-.034l-3.9-17.278,1.142-3.123,2.925-8,.959-2.625c.156.831.308,1.71.453,2.625.4,2.488.744,5.237,1.049,8C1932.118,1117.131,1932.638,1126.455,1932.638,1126.455Z" transform="translate(-1898.793 -1016.46)" fill="#141515"/>
        <path id="Path_28" data-name="Path 28" d="M1940.848,1057.57s-5.324,1.392-5.965,5.075l-4.412,25.336s2.7.813,3.959-1.186,4.428-18.625,4.428-18.625Z" transform="translate(-1896.399 -1032.601)" fill="#f5e9e9"/>
        <path id="Path_29" data-name="Path 29" d="M1936.84,1089.889c3.8.449,10.469-.482,10.728-1.61.893-3.9.281-5.123,1.037-11.1l-1.793-8.327s.262,9.253-1.441,11.672-6.951,4.617-7.784,6.641A10.2,10.2,0,0,0,1936.84,1089.889Z" transform="translate(-1893.812 -1028.017)" fill="#e8d8c1"/>
        <path id="Path_30" data-name="Path 30" d="M1941.859,1081.363s-3.738-1.387-4.345-.858a11.879,11.879,0,0,0-2.28,3.139c-.187.676,1.349-.5,1.847-.71.323-.141,1.169.35,1.588.579a3.413,3.413,0,0,0,2.848.494Z" transform="translate(-1894.47 -1023.331)" fill="#ffb27d"/>
        <path id="Path_31" data-name="Path 31" d="M1942.772,1057.05s5.026.563,6.75,4.488c2.426,5.535,7.183,29.056,4.385,32.154-3.153,3.489-14.281.76-14.281.76a11.569,11.569,0,0,1,.163-4.14c.522-1.344,8.913-3.431,9.3-4.05s-4.781-12.211-4.774-14.08S1942.772,1057.05,1942.772,1057.05Z" transform="translate(-1892.726 -1032.812)" fill="#f5e9e9"/>
        <path id="Path_32" data-name="Path 32" d="M1937.145,1081.66a11.391,11.391,0,0,1-1.049,1.813.52.52,0,0,1-.422.141l.536-1.527Z" transform="translate(-1894.285 -1022.812)" fill="#ffb27d"/>
        <path id="Path_33" data-name="Path 33" d="M1937.511,1080.47l-2.288,1.759a.383.383,0,0,0,.377.239,3.934,3.934,0,0,0,.985-.422Z" transform="translate(-1894.468 -1023.296)" fill="#ffb27d"/>
      </g>
      <g id="Group_7" data-name="Group 7" transform="translate(1925.165 1080.176)">
        <g id="Group_6" data-name="Group 6">
          <path id="Path_34" data-name="Path 34" d="M1943.074,1090.531l-18.043-.205-5.333-21.811,18.015.205Z" transform="translate(-1919.698 -1068.515)" fill="#f99746"/>
          <path id="Path_35" data-name="Path 35" d="M1923.34,1083.42l23.826.271v.844l-23.615-.269Z" transform="translate(-1918.218 -1062.459)" fill="#ed7d2b"/>
        </g>
        <path id="Path_36" data-name="Path 36" d="M1926.77,1076.728c-.132-.765.141-1.382.619-1.377s.968.63,1.1,1.4-.141,1.382-.619,1.378S1926.91,1077.5,1926.77,1076.728Z" transform="translate(-1916.838 -1065.737)" fill="#fff"/>
      </g>
    </g>
    <g id="Group_14" data-name="Group 14">
      <g id="Group_13" data-name="Group 13">
        <path id="Rectangle_3" data-name="Rectangle 3" d="M14.189,0h57.36A14.188,14.188,0,0,1,85.737,14.188h0a14.188,14.188,0,0,1-14.19,14.189H14.189A14.189,14.189,0,0,1,0,14.189H0A14.189,14.189,0,0,1,14.189,0Z" transform="translate(1874.612 1313.621) rotate(180)" fill="#31343a"/>
        <path id="Path_37" data-name="Path 37" d="M1836.31,1295.66l-.062,6.2c-.054,5.486,2.662,10.005,6.067,10.093l45.517,1.171.012-1.235c-2.553-2.14-4.277-6.473-4.228-11.426l.021-2.181c.049-4.952,1.859-9.194,4.453-11.2v-.025l-45.518-1.172C1839.17,1285.8,1836.37,1290.17,1836.31,1295.66Z" fill="#f9dec7"/>
        <g id="Group_9" data-name="Group 9">
          <path id="Path_38" data-name="Path 38" d="M1889.03,1313.62h-47.954c-3.092,0-5.515-6.236-5.515-14.2s2.423-14.2,5.515-14.2h47.954c.4,0,.721.521.721,1.162s-.323,1.162-.721,1.162h-47.954c-2.208,0-4.073,5.438-4.073,11.874s1.865,11.875,4.073,11.875h47.954c.4,0,.721.52.721,1.161S1889.43,1313.62,1889.03,1313.62Z"/>
        </g>
        <g id="Group_10" data-name="Group 10">
          <rect id="Rectangle_4" data-name="Rectangle 4" width="41.238" height="0.183" transform="translate(1843.215 1292.786)" fill="#e8c2a3"/>
        </g>
        <g id="Group_11" data-name="Group 11">
          <rect id="Rectangle_5" data-name="Rectangle 5" width="15.655" height="0.168" transform="translate(1868.213 1295.377)" fill="#e8c2a3"/>
        </g>
        <g id="Group_12" data-name="Group 12">
          <rect id="Rectangle_6" data-name="Rectangle 6" width="27.31" height="0.168" transform="translate(1856.558 1304.189)" fill="#e8c2a3"/>
        </g>
      </g>
      <path id="Path_39" data-name="Path 39" d="M1848.34,1292.88s2.116,1.427,2.367,6.243a54.93,54.93,0,0,1,0,7.382l-2.554-1.958-2.579,1.958v-7.529s-.094-6.1-3.614-6.1Z" fill="#f78248"/>
    </g>
    <g id="Group_20" data-name="Group 20">
      <g id="Group_19" data-name="Group 19">
        <rect id="Rectangle_7" data-name="Rectangle 7" width="63.985" height="21.36" rx="10.68" transform="translate(1850.349 1285.244) rotate(180)" fill="#9ca3a3"/>
        <path id="Path_40" data-name="Path 40" d="M1821.77,1271.71l-.046,4.662c-.041,4.124,1.987,7.521,4.527,7.586l33.97.881.009-.929c-1.905-1.608-3.192-4.865-3.156-8.588l.017-1.64c.036-3.722,1.386-6.911,3.323-8.42v-.019l-33.97-.88C1823.9,1264.3,1821.81,1267.59,1821.77,1271.71Z" fill="#f9dec7"/>
        <g id="Group_15" data-name="Group 15">
          <path id="Path_41" data-name="Path 41" d="M1861.11,1285.21h-35.787c-2.308,0-4.117-4.688-4.117-10.672s1.809-10.672,4.117-10.672h35.787c.3,0,.539.391.539.873s-.241.873-.539.873h-35.787c-1.648,0-3.04,4.088-3.04,8.926s1.392,8.925,3.04,8.925h35.787c.3,0,.539.391.539.874S1861.41,1285.21,1861.11,1285.21Z" fill="#535963"/>
        </g>
        <g id="Group_16" data-name="Group 16">
          <rect id="Rectangle_8" data-name="Rectangle 8" width="25.841" height="0.126" transform="translate(1831.854 1269.558)" fill="#e8c2a3"/>
        </g>
        <g id="Group_17" data-name="Group 17">
          <rect id="Rectangle_9" data-name="Rectangle 9" width="11.683" height="0.126" transform="translate(1845.574 1271.501)" fill="#e8c2a3"/>
        </g>
        <g id="Group_18" data-name="Group 18">
          <rect id="Rectangle_10" data-name="Rectangle 10" width="20.381" height="0.126" transform="translate(1836.876 1278.125)" fill="#e8c2a3"/>
        </g>
      </g>
    </g>
    <g id="Group_35" data-name="Group 35">
      <g id="Group_27" data-name="Group 27">
        <path id="Path_60" data-name="Path 60" d="M1912.64,1294.89l-22.308,1.767v-35.946l22.308-1.767Z" fill="#ccb9a9"/>
        <g id="Group_26" data-name="Group 26">
          <path id="Path_61" data-name="Path 61" d="M1892.01,1292.42l6.589-19.664,4.845,10.265,2.419-4.453,5.127,12.349Z" fill="#fff7f0"/>
          <path id="Path_62" data-name="Path 62" d="M1901.74,1269.75c0-1.517.764-2.808,1.7-2.882s1.7,1.1,1.7,2.612-.763,2.808-1.7,2.883S1901.74,1271.27,1901.74,1269.75Z" fill="#fff7f0"/>
        </g>
      </g>
      <g id="Group_29" data-name="Group 29">
        <path id="Path_63" data-name="Path 63" d="M1978.93,1157.44l-32.138,2.545V1108.2l32.138-2.545Z" fill="#ccb9a9"/>
        <g id="Group_28" data-name="Group 28">
          <path id="Path_64" data-name="Path 64" d="M1949.21,1153.88l9.493-28.33,6.98,14.789,3.485-6.415,7.386,17.791Z" fill="#fff7f0"/>
          <path id="Path_65" data-name="Path 65" d="M1963.22,1121.23c0-2.186,1.1-4.046,2.456-4.153s2.457,1.578,2.457,3.764-1.1,4.045-2.457,4.153S1963.22,1123.42,1963.22,1121.23Z" fill="#fff7f0"/>
        </g>
      </g>
      <g id="Group_30" data-name="Group 30">
        <path id="Path_66" data-name="Path 66" d="M1921.76,1196.51l-31.43,2.49v-2.95l31.426-2.489Z" fill="#afaba8"/>
        <path id="Path_67" data-name="Path 67" d="M1907.18,1203.64l-16.848,1.334V1203.5l16.848-1.334Z" fill="#afaba8"/>
        <path id="Path_68" data-name="Path 68" d="M1902.24,1208.94l-11.91.943V1208.4l11.91-.943Z" fill="#afaba8"/>
        <path id="Path_69" data-name="Path 69" d="M1916.46,1207.81l-11.91.943v-1.475l11.91-.943Z" fill="#afaba8"/>
        <path id="Path_70" data-name="Path 70" d="M1932.67,1206.53l-14.512,1.149V1206.2l14.512-1.149Z" fill="#afaba8"/>
        <path id="Path_71" data-name="Path 71" d="M1900.67,1213.86l-10.339.819V1213.2l10.339-.819Z" fill="#afaba8"/>
        <path id="Path_72" data-name="Path 72" d="M1913.02,1212.89l-10.339.819v-1.475l10.339-.819Z" fill="#afaba8"/>
        <path id="Path_73" data-name="Path 73" d="M1927.09,1211.77l-12.6,1v-1.47l12.6-1Z" fill="#afaba8"/>
      </g>
      <g id="Group_31" data-name="Group 31">
        <path id="Path_74" data-name="Path 74" d="M1921.76,1163.22l-31.426,2.489v-2.95l31.426-2.489Z" fill="#afaba8"/>
        <path id="Path_75" data-name="Path 75" d="M1907.18,1170.35l-16.848,1.334v-1.475l16.848-1.334Z" fill="#afaba8"/>
        <path id="Path_76" data-name="Path 76" d="M1927.3,1168.76l-16.848,1.334v-1.475l16.848-1.334Z" fill="#afaba8"/>
        <path id="Path_77" data-name="Path 77" d="M1902.24,1175.65l-11.91.943v-1.475l11.91-.943Z" fill="#afaba8"/>
        <path id="Path_78" data-name="Path 78" d="M1916.46,1174.52l-11.91.943v-1.475l11.91-.943Z" fill="#afaba8"/>
        <path id="Path_79" data-name="Path 79" d="M1932.67,1173.24l-14.512,1.149v-1.475l14.512-1.149Z" fill="#afaba8"/>
        <path id="Path_80" data-name="Path 80" d="M1900.67,1180.58l-10.339.819v-1.475l10.339-.819Z" fill="#afaba8"/>
        <path id="Path_81" data-name="Path 81" d="M1913.02,1179.6l-10.339.819v-1.475l10.339-.819Z" fill="#afaba8"/>
        <path id="Path_82" data-name="Path 82" d="M1927.09,1178.49l-12.6,1v-1.475l12.6-1Z" fill="#afaba8"/>
      </g>
      <g id="Group_32" data-name="Group 32">
        <path id="Path_83" data-name="Path 83" d="M1968.72,1167.33l-22.107,1.751v-2.075l22.107-1.751Z" fill="#afaba8"/>
        <path id="Path_84" data-name="Path 84" d="M1958.46,1172.34l-11.852.938v-1.037l11.852-.939Z" fill="#afaba8"/>
        <path id="Path_85" data-name="Path 85" d="M1972.62,1171.22l-11.852.939v-1.038l11.852-.938Z" fill="#afaba8"/>
        <path id="Path_86" data-name="Path 86" d="M1954.99,1176.07l-8.378.664V1175.7l8.378-.663Z" fill="#afaba8"/>
        <path id="Path_87" data-name="Path 87" d="M1964.99,1175.28l-8.378.663V1174.9l8.378-.664Z" fill="#afaba8"/>
        <path id="Path_88" data-name="Path 88" d="M1976.4,1174.38l-10.208.808v-1.037l10.208-.809Z" fill="#afaba8"/>
        <path id="Path_89" data-name="Path 89" d="M1953.89,1179.54l-7.273.576v-1.037l7.273-.576Z" fill="#afaba8"/>
        <path id="Path_90" data-name="Path 90" d="M1962.57,1178.85l-7.273.576v-1.038l7.273-.576Z" fill="#afaba8"/>
        <path id="Path_91" data-name="Path 91" d="M1972.47,1178.07l-8.862.7v-1.037l8.862-.7Z" fill="#afaba8"/>
      </g>
      <g id="Group_33" data-name="Group 33">
        <path id="Path_92" data-name="Path 92" d="M1921.76,1231.23l-31.426,2.489v-2.95l31.426-2.489Z" fill="#afaba8"/>
        <path id="Path_93" data-name="Path 93" d="M1907.18,1238.36l-16.848,1.334v-1.475l16.848-1.334Z" fill="#afaba8"/>
        <path id="Path_94" data-name="Path 94" d="M1927.3,1236.77l-16.848,1.334v-1.475l16.848-1.334Z" fill="#afaba8"/>
        <path id="Path_95" data-name="Path 95" d="M1902.24,1243.66l-11.91.943v-1.475l11.91-.943Z" fill="#afaba8"/>
        <path id="Path_96" data-name="Path 96" d="M1916.46,1242.53l-11.91.943V1242l11.91-.943Z" fill="#afaba8"/>
        <path id="Path_97" data-name="Path 97" d="M1932.67,1241.25l-14.512,1.149v-1.475l14.512-1.149Z" fill="#afaba8"/>
        <path id="Path_98" data-name="Path 98" d="M1900.67,1248.59l-10.339.819v-1.475l10.339-.819Z" fill="#afaba8"/>
        <path id="Path_99" data-name="Path 99" d="M1913.02,1247.61l-10.339.819v-1.475l10.339-.819Z" fill="#afaba8"/>
        <path id="Path_100" data-name="Path 100" d="M1927.09,1246.5l-12.6,1v-1.475l12.6-1Z" fill="#afaba8"/>
      </g>
      <g id="Group_34" data-name="Group 34">
        <path id="Path_101" data-name="Path 101" d="M1942.67,1277.49l-24.273,1.922v-2.95l24.273-1.922Z" fill="#afaba8"/>
        <path id="Path_102" data-name="Path 102" d="M1931.41,1284.35l-13.013,1.03v-1.48l13.013-1.031Z" fill="#afaba8"/>
        <path id="Path_103" data-name="Path 103" d="M1946.95,1283.12l-13.013,1.031v-1.475l13.013-1.031Z" fill="#afaba8"/>
        <path id="Path_104" data-name="Path 104" d="M1927.59,1289.56l-9.2.728v-1.475l9.2-.729Z" fill="#afaba8"/>
        <path id="Path_105" data-name="Path 105" d="M1938.58,1288.69l-9.2.729v-1.475l9.2-.729Z" fill="#afaba8"/>
        <path id="Path_106" data-name="Path 106" d="M1951.1,1287.7l-11.209.888v-1.475l11.209-.888Z" fill="#afaba8"/>
        <path id="Path_107" data-name="Path 107" d="M1926.38,1294.46l-7.986.633v-1.475l7.986-.632Z" fill="#afaba8"/>
        <path id="Path_108" data-name="Path 108" d="M1935.92,1293.7l-7.986.632v-1.475l7.986-.632Z" fill="#afaba8"/>
        <path id="Path_109" data-name="Path 109" d="M1946.79,1292.84l-9.731.771v-1.475l9.731-.771Z" fill="#afaba8"/>
      </g>
    </g>
    <g id="Group_41" data-name="Group 41">
      <g id="Group_37" data-name="Group 37">
        <path id="Path_110" data-name="Path 110" d="M1872.84,1175.15l-35.021-2.049v-56.432l35.021,2.049Z" fill="#ccb9a9"/>
        <g id="Group_36" data-name="Group 36">
          <path id="Path_111" data-name="Path 111" d="M1840.45,1166.8l10.344-29.446,7.606,17.162,3.8-6.468,8.048,20.495Z" fill="#fff7f0"/>
          <path id="Path_112" data-name="Path 112" d="M1855.72,1133.33c0-2.382,1.2-4.243,2.677-4.157s2.677,2.088,2.677,4.47-1.2,4.244-2.677,4.157S1855.72,1135.71,1855.72,1133.33Z" fill="#fff7f0"/>
        </g>
      </g>
      <g id="Group_38" data-name="Group 38">
        <path id="Path_113" data-name="Path 113" d="M1868.66,1197.4l-31.426-1.838v-2.95l31.426,1.838Z" fill="#afaba8"/>
        <path id="Path_114" data-name="Path 114" d="M1854.08,1202.52l-16.848-.986v-1.475l16.848.986Z" fill="#afaba8"/>
        <path id="Path_115" data-name="Path 115" d="M1849.14,1207.13l-11.91-.7v-1.475l11.91.7Z" fill="#afaba8"/>
        <path id="Path_116" data-name="Path 116" d="M1863.36,1207.97l-11.91-.7V1205.8l11.91.7Z" fill="#afaba8"/>
        <path id="Path_117" data-name="Path 117" d="M1879.57,1208.91l-14.512-.849v-1.475l14.512.849Z" fill="#afaba8"/>
        <path id="Path_118" data-name="Path 118" d="M1847.57,1211.85l-10.339-.6v-1.475l10.339.6Z" fill="#afaba8"/>
        <path id="Path_119" data-name="Path 119" d="M1859.92,1212.57l-10.339-.6v-1.475l10.339.6Z" fill="#afaba8"/>
        <path id="Path_120" data-name="Path 120" d="M1873.99,1213.39l-12.6-.737v-1.475l12.6.737Z" fill="#afaba8"/>
      </g>
      <g id="Group_39" data-name="Group 39">
        <path id="Path_121" data-name="Path 121" d="M1868.66,1232.12l-31.426-1.839v-2.95l31.426,1.838Z" fill="#afaba8"/>
        <path id="Path_122" data-name="Path 122" d="M1854.08,1237.24l-16.848-.986v-1.475l16.848.986Z" fill="#afaba8"/>
        <path id="Path_123" data-name="Path 123" d="M1874.2,1238.42l-16.848-.986v-1.475l16.848.986Z" fill="#afaba8"/>
        <path id="Path_124" data-name="Path 124" d="M1849.14,1241.86l-11.91-.7v-1.475l11.91.7Z" fill="#afaba8"/>
        <path id="Path_125" data-name="Path 125" d="M1863.36,1242.69l-11.91-.7v-1.475l11.91.7Z" fill="#afaba8"/>
        <path id="Path_126" data-name="Path 126" d="M1879.57,1243.64l-14.512-.849v-1.475l14.512.849Z" fill="#afaba8"/>
        <path id="Path_127" data-name="Path 127" d="M1847.57,1246.57l-10.339-.6v-1.475l10.339.6Z" fill="#afaba8"/>
        <path id="Path_128" data-name="Path 128" d="M1859.92,1247.29l-10.339-.6v-1.475l10.339.6Z" fill="#afaba8"/>
        <path id="Path_129" data-name="Path 129" d="M1873.99,1248.12l-12.6-.737V1245.9l12.6.737Z" fill="#afaba8"/>
      </g>
      <g id="Group_40" data-name="Group 40">
        <path id="Path_130" data-name="Path 130" d="M1824.01,1111.2l-31.426-1.838v-2.95l31.426,1.839Z" fill="rgba(175,167,167,0.85)"/>
        <path id="Path_131" data-name="Path 131" d="M1809.43,1116.32l-16.848-.986v-1.475l16.848.986Z" fill="rgba(175,167,167,0.85)"/>
        <path id="Path_132" data-name="Path 132" d="M1829.55,1117.49l-16.848-.986v-1.475l16.848.986Z" fill="rgba(175,167,167,0.85)"/>
        <path id="Path_133" data-name="Path 133" d="M1804.49,1120.93l-11.91-.7v-1.475l11.91.7Z" fill="rgba(175,167,167,0.85)"/>
        <path id="Path_134" data-name="Path 134" d="M1818.71,1121.77l-11.91-.7V1119.6l11.91.7Z" fill="rgba(175,167,167,0.85)"/>
        <path id="Path_135" data-name="Path 135" d="M1834.92,1122.71l-14.512-.849v-1.475l14.512.849Z" fill="rgba(175,167,167,0.85)"/>
        <path id="Path_136" data-name="Path 136" d="M1802.92,1125.65l-10.339-.6v-1.475l10.339.6Z" fill="rgba(175,167,167,0.85)"/>
        <path id="Path_137" data-name="Path 137" d="M1815.27,1126.37l-10.339-.6V1124.3l10.339.6Z" fill="rgba(175,167,167,0.85)"/>
        <path id="Path_138" data-name="Path 138" d="M1829.34,1127.19l-12.6-.737v-1.475l12.6.737Z" fill="rgba(175,167,167,0.85)"/>
      </g>
    </g>
    <g id="Group_43" data-name="Group 43">
      <path id="Path_139" data-name="Path 139" d="M1744.96,1307.14c0,.271.01.54.031.8a9.652,9.652,0,0,0,.465,2.347,7.271,7.271,0,0,0,.7,1.507,3.543,3.543,0,0,0,2.89,1.928h57.479c2.257,0,4.088-2.948,4.088-6.585a8.948,8.948,0,0,0-1.2-4.657,3.54,3.54,0,0,0-2.89-1.93h-57.479C1746.79,1300.55,1744.96,1303.5,1744.96,1307.14Z" fill="#f78248"/>
      <path id="Path_140" data-name="Path 140" d="M1749.34,1299.36h19.708c.345,0,.627-.455.627-1.011h0c0-.556-.282-1.01-.627-1.01H1749.34c-.345,0-.627.454-.627,1.01h0C1748.72,1298.91,1749,1299.36,1749.34,1299.36Z" fill="#f78248"/>
      <rect id="Rectangle_11" data-name="Rectangle 11" width="2.136" height="1.192" transform="translate(1752.568 1300.554) rotate(180)" fill="#ea642f"/>
      <path id="Path_141" data-name="Path 141" d="M1745.45,1310.29a7.261,7.261,0,0,0,.7,1.507,3.543,3.543,0,0,0,2.89,1.928h12.175v-3.435Z" fill="#ea642f"/>
      <path id="Path_142" data-name="Path 142" d="M1818.22,1305.21v3.858a7.319,7.319,0,0,1-.1,1.222c-.332,1.98-1.454,3.435-2.788,3.435h-59.874c-1.334,0-2.457-1.455-2.789-3.435a7.451,7.451,0,0,1-.1-1.222v-3.858c0-2.572,1.293-4.657,2.89-4.657h59.874C1816.93,1300.55,1818.22,1302.64,1818.22,1305.21Z" fill="#ea953e"/>
      <path id="Path_143" data-name="Path 143" d="M1818.12,1310.29c-.332,1.98-1.454,3.435-2.788,3.435h-59.874c-1.334,0-2.457-1.455-2.789-3.435Z" fill="#ef873a"/>
      <g id="Group_42" data-name="Group 42">
        <path id="Path_144" data-name="Path 144" d="M1812.27,1307.16a10.206,10.206,0,0,0,1.189,5.085c.017.027.032.054.049.081a2.574,2.574,0,0,0,2.051,1.443c1.212,0,4.216-2.947,6.078-4.9.928-.975,1.572-1.7,1.572-1.7s-.644-.73-1.572-1.7c-1.862-1.959-4.866-4.905-6.078-4.905a1.854,1.854,0,0,0-1.006.313,4.161,4.161,0,0,0-1.386,1.763,10.06,10.06,0,0,0-.832,3.223.3.3,0,0,0,0,.043C1812.3,1306.3,1812.27,1306.73,1812.27,1307.16Z" fill="#cde0fb"/>
        <path id="Path_145" data-name="Path 145" d="M1812.27,1307.16a10.206,10.206,0,0,0,1.189,5.085l9.216-5.108-10.344-1.245C1812.3,1306.3,1812.27,1306.73,1812.27,1307.16Z" fill="#a6c7ed"/>
        <path id="Path_146" data-name="Path 146" d="M1813.17,1302.63l9.193,4.045-7.807-5.808a4.161,4.161,0,0,0-1.386,1.763Z" fill="#e3f0ff"/>
        <path id="Path_147" data-name="Path 147" d="M1821.04,1307.16a2.187,2.187,0,0,0,.6,1.7c.928-.975,1.572-1.7,1.572-1.7s-.644-.73-1.572-1.7A2.182,2.182,0,0,0,1821.04,1307.16Z" fill="#f99746"/>
      </g>
    </g>
    <g id="Group_49" data-name="Group 49" transform="translate(-7.779 -17.841)">
      <g id="Group_44" data-name="Group 44" transform="translate(1773.82 1185.679)">
        <path id="Path_148" data-name="Path 148" d="M1794.532,1335.446h0a1.548,1.548,0,0,0,1.3-1.264l33.348-143.554c.163-.7-.154-1.276-.707-1.281h0a1.546,1.546,0,0,0-1.3,1.264l-33.348,143.554C1793.67,1334.872,1793.98,1335.446,1794.532,1335.446Z" transform="translate(-1766.909 -1189.125)" fill="#233862"/>
        <path id="Path_149" data-name="Path 149" d="M1774.574,1335.256h0a1.549,1.549,0,0,0,1.3-1.264l33.347-143.554c.164-.7-.154-1.276-.707-1.281h0a1.547,1.547,0,0,0-1.3,1.264l-33.348,143.554C1773.7,1334.682,1774.008,1335.256,1774.574,1335.256Z" transform="translate(-1773.821 -1189.157)" fill="#233862"/>
        <path id="Path_150" data-name="Path 150" d="M1796.053,1207.69l26.988.221a1.462,1.462,0,0,0,1.226-1.193h0c.152-.66-.148-1.2-.673-1.208l-26.989-.221a1.461,1.461,0,0,0-1.225,1.193h0C1795.232,1207.14,1795.541,1207.69,1796.053,1207.69Z" transform="translate(-1766.371 -1186.406)" fill="#233862"/>
        <path id="Path_151" data-name="Path 151" d="M1791.732,1229.11l26.989.221a1.459,1.459,0,0,0,1.225-1.193h0c.154-.661-.147-1.2-.666-1.209l-26.989-.221a1.459,1.459,0,0,0-1.225,1.194h0C1790.911,1228.56,1791.207,1229.1,1791.732,1229.11Z" transform="translate(-1767.865 -1182.753)" fill="#233862"/>
        <path id="Path_152" data-name="Path 152" d="M1787.563,1249.73l26.988.22a1.462,1.462,0,0,0,1.226-1.193h0c.152-.66-.148-1.2-.673-1.208l-26.989-.221a1.46,1.46,0,0,0-1.225,1.193h0C1786.742,1249.18,1787.051,1249.718,1787.563,1249.73Z" transform="translate(-1769.309 -1179.236)" fill="#233862"/>
        <path id="Path_153" data-name="Path 153" d="M1782.872,1272.94l26.989.221a1.46,1.46,0,0,0,1.225-1.193h0c.154-.66-.147-1.2-.673-1.208l-26.989-.221a1.46,1.46,0,0,0-1.225,1.193h0C1782.051,1272.4,1782.361,1272.94,1782.872,1272.94Z" transform="translate(-1770.933 -1175.278)" fill="#233862"/>
        <path id="Path_154" data-name="Path 154" d="M1777.972,1297.25l26.988.22a1.459,1.459,0,0,0,1.225-1.193h0c.153-.66-.147-1.2-.667-1.208l-26.989-.221a1.459,1.459,0,0,0-1.225,1.193h0C1777.151,1296.7,1777.447,1297.238,1777.972,1297.25Z" transform="translate(-1772.629 -1171.132)" fill="#233862"/>
      </g>
      <g id="Group_48" data-name="Group 48" transform="translate(1792.317 1136.68)">
        <path id="Path_155" data-name="Path 155" d="M1814.86,1163.119s.319-1.005.525-1.482,1.09-1.873,1.24-1.554a6.279,6.279,0,0,1,.432,3.036c-.319.6.022,1.632-1.567,2.259Z" transform="translate(-1782.687 -1132.697)" fill="#ffb27d"/>
        <path id="Path_156" data-name="Path 156" d="M1801.75,1157.25s8.131,9.51,11.308,8.629a49.894,49.894,0,0,0,6.285-2.516l.76,2.727s-3.412,6.486-6.97,6.528a16.4,16.4,0,0,1-9.669-3.373Z" transform="translate(-1787.225 -1133.172)" fill="#b69376"/>
        <path id="Path_157" data-name="Path 157" d="M1791.16,1243.19s.236,5.335.972,5.413c.1.009,3.737.009,3.737.009l4.644-.037a2.019,2.019,0,0,0-1.388-1.9,6.553,6.553,0,0,1-4.453-4.182C1793.812,1239.854,1791.16,1243.19,1791.16,1243.19Z" transform="translate(-1790.891 -1118.808)" fill="#1c3d72"/>
        <path id="Path_158" data-name="Path 158" d="M1790.96,1252.856a7.366,7.366,0,0,0,2.515.661,6.88,6.88,0,0,0,2.346-.468s.269-3.6,1.729-11.538c.767-4.16,1.863-9.508,3.421-16.154a292.3,292.3,0,0,0,5.737-30.13c.007-.054.01-.081.01-.081l-.014-.008-13.245-8.148s1.637,25.314-.452,35.031c-.292,1.358-.539,2.94-.758,4.655C1790.933,1237.23,1790.96,1252.856,1790.96,1252.856Z" transform="translate(-1790.96 -1128.1)" fill="#2b478b"/>
        <path id="Path_159" data-name="Path 159" d="M1797.021,1241.513c.767-4.16,1.863-9.508,3.421-16.154a292.26,292.26,0,0,0,5.737-30.13v-.089l-13.245-8.148s1.637,25.314-.452,35.031C1792.188,1223.382,1797.021,1241.513,1797.021,1241.513Z" transform="translate(-1790.438 -1128.099)" fill="#233862"/>
        <path id="Path_160" data-name="Path 160" d="M1798.84,1243.19s.237,5.335.973,5.413c.1.009,3.737.009,3.737.009l4.644-.037a2.021,2.021,0,0,0-1.388-1.9,6.552,6.552,0,0,1-4.453-4.182C1801.492,1239.854,1798.84,1243.19,1798.84,1243.19Z" transform="translate(-1788.232 -1118.808)" fill="#1c3d72"/>
        <path id="Path_161" data-name="Path 161" d="M1808.041,1187.5s.172,16.4-1.854,36.545-1.339,28.692-1.339,28.692a10.865,10.865,0,0,1-1.953.7,6.552,6.552,0,0,1-2.9-.468s-2.9-20.15-2.068-30.23-3.97-34.594-3.97-34.594Z" transform="translate(-1789.922 -1128.013)" fill="#2b478b"/>
        <path id="Path_162" data-name="Path 162" d="M1797.44,1155.882l2.586,2.375,2.354-.937a10.607,10.607,0,0,0,.551-3.956c.007-1.426-.092-2.634-.092-2.634l-3.489-2.157-1.3-.8c0,.029.1,1.5.115,1.712a16.8,16.8,0,0,1-.725,6.4Z" transform="translate(-1788.717 -1134.789)" fill="#ffb27d"/>
        <path id="Path_163" data-name="Path 163" d="M1808.668,1197.857c-3.219,4.354-15.4,3.622-16.147-1.17s.819-40.832,6.315-43.1c1.142-.468,7.24,2.292,7.24,2.292a71.763,71.763,0,0,1,1.584,7.974c.121.87.477,10.078.743,18.694.124,4.029.229,7.929.283,10.785A44.152,44.152,0,0,1,1808.668,1197.857Z" transform="translate(-1790.481 -1133.805)" fill="#b69376"/>
        <path id="Path_164" data-name="Path 164" d="M1798.207,1149.442c.708,1.677,3.19,3.144,4.506,3.816.007-1.426-.091-2.634-.091-2.634l-3.49-2.157C1798.355,1148.447,1797.883,1148.693,1798.207,1149.442Z" transform="translate(-1788.487 -1134.67)" fill="#fca56b"/>
        <path id="Path_165" data-name="Path 165" d="M1804.446,1151.939s-5.62,2.458-6.658-2.472-2.462-7.929,1.077-9.706,4.64-.186,5.273,1.341S1805.886,1151.178,1804.446,1151.939Z" transform="translate(-1789.005 -1136.288)" fill="#ffb27d"/>
        <path id="Path_166" data-name="Path 166" d="M1804.55,1141.023s-.358,5.736-1.2,5.485-1.778-.781-1.655.947-.822,4.693-2.043,4.682c-2.617-.015-5.461-9.426-4.744-11.21C1796.971,1135.779,1807.538,1134.737,1804.55,1141.023Z" transform="translate(-1789.634 -1136.68)" fill="#163560"/>
        <path id="Path_167" data-name="Path 167" d="M1802.907,1154.032c-.073-.042-4.184-2.627-4.666-2.4s-1.077,2.28-1.077,2.28l7.24,2.294a4.87,4.87,0,0,0-1.5-2.17Z" transform="translate(-1788.812 -1134.133)" fill="#ef7e29"/>
        <g id="Group_46" data-name="Group 46" transform="translate(14.504 3.638)">
          <path id="Path_168" data-name="Path 168" d="M1826.915,1177.97l-23.048,30.4c-.451.6-1.021.785-1.265.421l-.778-1.158a1.768,1.768,0,0,1,.377-1.745l23.048-30.4c.451-.6,1.021-.787,1.265-.422l.778,1.158a1.768,1.768,0,0,1-.377,1.745Z" transform="translate(-1801.735 -1133.802)" fill="#1f4d84"/>
          <path id="Path_169" data-name="Path 169" d="M1813.989,1192.462l-10.114,13.344c-.451.6-1.021.785-1.265.421l-.778-1.158a1.767,1.767,0,0,1,.377-1.745l10.114-13.344Z" transform="translate(-1801.732 -1131.228)" fill="#f78248"/>
          <path id="Path_170" data-name="Path 170" d="M1816.711,1172.484a28.118,28.118,0,0,0,4.9,11.049c7.27,9.579,18.7,9.089,25.536-1.091,6.746-10.048,6.5-25.776-.5-35.394-.093-.13-.187-.258-.284-.383-7.269-9.578-18.7-9.093-25.533,1.089C1816.24,1154.6,1814.893,1164.091,1816.711,1172.484Zm5.164-23.36c3.978-5.925,9.645-8.286,14.968-7a15.4,15.4,0,0,1,8.549,5.991c6.693,8.822,7.014,23.576.716,32.953a16.33,16.33,0,0,1-8.269,6.709c-5.258,1.744-11.02-.127-15.248-5.7-6.688-8.821-7.011-23.582-.724-32.958Z" transform="translate(-1796.82 -1139.788)" fill="#1f4d84"/>
          <g id="Group_45" data-name="Group 45" transform="translate(20.534 1.99)" opacity="0.5">
            <path id="Path_171" data-name="Path 171" d="M1845.745,1180.774a16.338,16.338,0,0,1-8.272,6.711c-5.257,1.743-11.019-.13-15.248-5.705-6.692-8.822-7.013-23.576-.716-32.954,3.978-5.924,9.646-8.286,14.969-6.994a15.394,15.394,0,0,1,8.549,5.99C1851.722,1156.649,1852.045,1171.4,1845.745,1180.774Z" transform="translate(-1816.988 -1141.488)" fill="#b3cff9"/>
          </g>
        </g>
        <path id="Path_172" data-name="Path 172" d="M1807.48,1191.843c-12.7-12.681-11.643-29.6-11.643-29.6,4.642,3.668,9.247,11.778,11.36,18.814C1807.318,1185.089,1807.426,1188.986,1807.48,1191.843Z" transform="translate(-1789.279 -1132.32)" fill="#b69c89"/>
        <g id="Group_47" data-name="Group 47" transform="translate(6.294 22.077)">
          <path id="Path_173" data-name="Path 173" d="M1814.182,1182.8a3.654,3.654,0,0,0,1.615-1.4s.383.036-.063,1.179c-.036.095-.12.341-.182.514-.026.071.009.153.066.159a6.042,6.042,0,0,1,2.033.06c.135.04.178.5.172.7a2.327,2.327,0,0,1-.269,1.215c-.16.3-.608.616-1.6,1.178a3.56,3.56,0,0,1-2.484-.438l-.808-.527.253-2.117.2.061C1813.442,1183.472,1813.845,1182.91,1814.182,1182.8Z" transform="translate(-1789.743 -1151.13)" fill="#f99746"/>
          <path id="Path_174" data-name="Path 174" d="M1799.842,1155.54s-11.412,3.043,3.357,26.2c2.361,3.7,15.121,8.525,15.121,8.525a2.932,2.932,0,0,0,.642-2.793s-8.786-8.939-10.719-10.36c-.87-.639-3.375-14.268-4.792-17.55S1799.842,1155.54,1799.842,1155.54Z" transform="translate(-1795.635 -1155.54)" fill="#b69376"/>
        </g>
        <path id="Path_175" data-name="Path 175" d="M1815.09,1163.477a10.189,10.189,0,0,0,.446-1.522,10.376,10.376,0,0,1,.737-2.335c.078-.109.332.032.363.5a3.64,3.64,0,0,1-.183,1.011,15.583,15.583,0,0,0-.242,2.01C1816.046,1163.945,1815.09,1163.477,1815.09,1163.477Z" transform="translate(-1782.607 -1132.773)" fill="#ffb27d"/>
      </g>
    </g>
    <path id="Path_176" data-name="Path 176" d="M2051.67,1315.81l-340.164-.189c-.253,0-.461-.334-.46-.742v-.585c0-.409.207-.742.46-.742l340.164.189c.254,0,.461.334.461.742v.585C2052.13,1315.47,2051.92,1315.81,2051.67,1315.81Z" fill="#2e3552"/>
  </g>
</svg>
