<svg id="back" xmlns="http://www.w3.org/2000/svg" width="21.195" height="17.605" viewBox="0 0 21.195 17.605">
  <g id="Group_31" data-name="Group 31">
    <path id="Path_20" data-name="Path 20" d="M1.191,48.814l-.033.007H15.341l-4.459-4.468a1.171,1.171,0,0,1,0-1.646l.694-.694a1.16,1.16,0,0,1,1.638,0l7.643,7.642a1.168,1.168,0,0,1,0,1.644l-7.643,7.643a1.162,1.162,0,0,1-1.638,0l-.694-.694a1.148,1.148,0,0,1-.338-.819,1.114,1.114,0,0,1,.338-.8l4.509-4.493H1.175A1.2,1.2,0,0,1,0,50.942V49.96A1.178,1.178,0,0,1,1.191,48.814Z" transform="translate(0 -41.674)" fill="#a5acbc"/>
  </g>
</svg>
