<svg xmlns="http://www.w3.org/2000/svg" width="74" height="70" viewBox="0 0 74 70">
  <g id="Media_Avatar" data-name="Media / Avatar" transform="translate(-465.594 -42.411)">
    <path id="Path_975" data-name="Path 975" d="M67.559,48.248A30.532,30.532,0,0,1,61.275,45.1c-1.793-1.247-3.651-2.405-5.467-3.623a1.177,1.177,0,0,1-.515-.668,2.645,2.645,0,0,0-1.84-2.161c-1.018-.394-2.071-.686-3.083-1.086a1.094,1.094,0,0,1-.568-.722,4.235,4.235,0,0,1,.485-2.674,26.189,26.189,0,0,0,2.651-8.7.9.9,0,0,1,.751-.937,1.387,1.387,0,0,0,.817-.6,6.47,6.47,0,0,0,.8-4.608,1.467,1.467,0,0,0-.408-.782,1.272,1.272,0,0,1-.325-1.534c.059-.191.071-.394.112-.591a21.037,21.037,0,0,0-.172-6.124c-.408-4.124-2.355-7.15-6.231-8.78A22.743,22.743,0,0,0,42.151.093,12.89,12.89,0,0,0,27.607,12.024a19.9,19.9,0,0,0,.426,6.261,1.885,1.885,0,0,0-.923,2.453c.361,1.4.87,2.752,1.355,4.112a.788.788,0,0,0,.538.436c.444.018.491.275.586.609.533,1.814,1.024,3.647,1.669,5.426.509,1.4,1.237,2.728,1.817,4.106a7.481,7.481,0,0,1,.379,1.588c.071.43-.183.567-.58.686q-2.095.627-4.142,1.4a1.008,1.008,0,0,0-.533.752,1.9,1.9,0,0,1-1.385,2.017,4.651,4.651,0,0,0-.651.364c-1.811,1.086-3.674,2.1-5.414,3.289a27.175,27.175,0,0,1-5,2.368S26.86,58.14,42.141,58.09,68.724,48.712,67.559,48.248Z" transform="translate(460.062 50.443)" fill="#195860"/>
    <g id="Ellipse_988" data-name="Ellipse 988" transform="translate(465.594 42.411)" fill="none" stroke="#195860" stroke-width="2">
      <ellipse cx="37" cy="35" rx="37" ry="35" stroke="none"/>
      <ellipse cx="37" cy="35" rx="36" ry="34" fill="none"/>
    </g>
  </g>
</svg>
